<svg width="93" height="29" viewBox="0 0 93 29" fill="none" xmlns="http://www.w3.org/2000/svg">
<g id="logo">
<path id="CSE" d="M40.5479 9.048C39.9932 9.048 39.4919 8.92533 39.0439 8.68C38.6012 8.43467 38.2519 8.096 37.9959 7.664C37.7452 7.22667 37.6199 6.73867 37.6199 6.2C37.6199 5.66133 37.7452 5.176 37.9959 4.744C38.2519 4.30667 38.6039 3.96533 39.0519 3.72C39.4999 3.47467 40.0012 3.352 40.5559 3.352C40.9719 3.352 41.3559 3.42133 41.7079 3.56C42.0599 3.69867 42.3586 3.90133 42.6039 4.168L42.2279 4.544C41.7906 4.10133 41.2386 3.88 40.5719 3.88C40.1292 3.88 39.7266 3.98133 39.3639 4.184C39.0012 4.38667 38.7159 4.664 38.5079 5.016C38.3052 5.368 38.2039 5.76267 38.2039 6.2C38.2039 6.63733 38.3052 7.032 38.5079 7.384C38.7159 7.736 39.0012 8.01333 39.3639 8.216C39.7266 8.41867 40.1292 8.52 40.5719 8.52C41.2439 8.52 41.7959 8.296 42.2279 7.848L42.6039 8.224C42.3586 8.49067 42.0572 8.696 41.6999 8.84C41.3479 8.97867 40.9639 9.048 40.5479 9.048ZM46.1787 9.048C45.7627 9.048 45.3627 8.98133 44.9787 8.848C44.6 8.71467 44.3067 8.53867 44.0987 8.32L44.3307 7.864C44.5333 8.06667 44.8027 8.232 45.1387 8.36C45.4747 8.48267 45.8213 8.544 46.1787 8.544C46.68 8.544 47.056 8.45333 47.3067 8.272C47.5573 8.08533 47.6827 7.84533 47.6827 7.552C47.6827 7.328 47.6133 7.14933 47.4747 7.016C47.3413 6.88267 47.176 6.78133 46.9787 6.712C46.7813 6.63733 46.5067 6.55733 46.1547 6.472C45.7333 6.36533 45.3973 6.264 45.1467 6.168C44.896 6.06667 44.68 5.91467 44.4987 5.712C44.3227 5.50933 44.2347 5.23467 44.2347 4.888C44.2347 4.60533 44.3093 4.34933 44.4587 4.12C44.608 3.88533 44.8373 3.69867 45.1467 3.56C45.456 3.42133 45.84 3.352 46.2987 3.352C46.6187 3.352 46.9307 3.39733 47.2347 3.488C47.544 3.57333 47.8107 3.69333 48.0347 3.848L47.8347 4.32C47.6 4.16533 47.3493 4.05067 47.0827 3.976C46.816 3.896 46.5547 3.856 46.2987 3.856C45.808 3.856 45.4373 3.952 45.1867 4.144C44.9413 4.33067 44.8187 4.57333 44.8187 4.872C44.8187 5.096 44.8853 5.27733 45.0187 5.416C45.1573 5.54933 45.328 5.65333 45.5307 5.728C45.7387 5.79733 46.016 5.87467 46.3627 5.96C46.7733 6.06133 47.104 6.16267 47.3547 6.264C47.6107 6.36 47.8267 6.50933 48.0027 6.712C48.1787 6.90933 48.2667 7.17867 48.2667 7.52C48.2667 7.80267 48.1893 8.06133 48.0347 8.296C47.8853 8.52533 47.6533 8.70933 47.3387 8.848C47.024 8.98133 46.6373 9.048 46.1787 9.048ZM54.3165 8.488V9H50.3565V3.4H54.1965V3.912H50.9485V5.904H53.8445V6.408H50.9485V8.488H54.3165Z" fill="#364182"/>
<path id="NotesHUB" d="M22.388 12.6V21H21.656L16.256 14.184V21H15.368V12.6H16.1L21.512 19.416V12.6H22.388ZM27.6497 21.06C27.0417 21.06 26.4937 20.924 26.0057 20.652C25.5177 20.372 25.1337 19.988 24.8537 19.5C24.5737 19.012 24.4337 18.46 24.4337 17.844C24.4337 17.228 24.5737 16.676 24.8537 16.188C25.1337 15.7 25.5177 15.32 26.0057 15.048C26.4937 14.776 27.0417 14.64 27.6497 14.64C28.2577 14.64 28.8057 14.776 29.2937 15.048C29.7817 15.32 30.1617 15.7 30.4337 16.188C30.7137 16.676 30.8537 17.228 30.8537 17.844C30.8537 18.46 30.7137 19.012 30.4337 19.5C30.1617 19.988 29.7817 20.372 29.2937 20.652C28.8057 20.924 28.2577 21.06 27.6497 21.06ZM27.6497 20.304C28.0977 20.304 28.4977 20.204 28.8497 20.004C29.2097 19.796 29.4897 19.504 29.6897 19.128C29.8897 18.752 29.9897 18.324 29.9897 17.844C29.9897 17.364 29.8897 16.936 29.6897 16.56C29.4897 16.184 29.2097 15.896 28.8497 15.696C28.4977 15.488 28.0977 15.384 27.6497 15.384C27.2017 15.384 26.7977 15.488 26.4377 15.696C26.0857 15.896 25.8057 16.184 25.5977 16.56C25.3977 16.936 25.2977 17.364 25.2977 17.844C25.2977 18.324 25.3977 18.752 25.5977 19.128C25.8057 19.504 26.0857 19.796 26.4377 20.004C26.7977 20.204 27.2017 20.304 27.6497 20.304ZM36.0372 20.616C35.8772 20.76 35.6772 20.872 35.4372 20.952C35.2052 21.024 34.9612 21.06 34.7052 21.06C34.1132 21.06 33.6572 20.9 33.3372 20.58C33.0172 20.26 32.8572 19.808 32.8572 19.224V15.408H31.7292V14.688H32.8572V13.308H33.7092V14.688H35.6292V15.408H33.7092V19.176C33.7092 19.552 33.8012 19.84 33.9852 20.04C34.1772 20.232 34.4492 20.328 34.8012 20.328C34.9772 20.328 35.1452 20.3 35.3052 20.244C35.4732 20.188 35.6172 20.108 35.7372 20.004L36.0372 20.616ZM42.9815 18.108H37.7015C37.7495 18.764 38.0015 19.296 38.4575 19.704C38.9135 20.104 39.4895 20.304 40.1855 20.304C40.5775 20.304 40.9375 20.236 41.2655 20.1C41.5935 19.956 41.8775 19.748 42.1175 19.476L42.5975 20.028C42.3175 20.364 41.9655 20.62 41.5415 20.796C41.1255 20.972 40.6655 21.06 40.1615 21.06C39.5135 21.06 38.9375 20.924 38.4335 20.652C37.9375 20.372 37.5495 19.988 37.2695 19.5C36.9895 19.012 36.8495 18.46 36.8495 17.844C36.8495 17.228 36.9815 16.676 37.2455 16.188C37.5175 15.7 37.8855 15.32 38.3495 15.048C38.8215 14.776 39.3495 14.64 39.9335 14.64C40.5175 14.64 41.0415 14.776 41.5055 15.048C41.9695 15.32 42.3335 15.7 42.5975 16.188C42.8615 16.668 42.9935 17.22 42.9935 17.844L42.9815 18.108ZM39.9335 15.372C39.3255 15.372 38.8135 15.568 38.3975 15.96C37.9895 16.344 37.7575 16.848 37.7015 17.472H42.1775C42.1215 16.848 41.8855 16.344 41.4695 15.96C41.0615 15.568 40.5495 15.372 39.9335 15.372ZM46.5397 21.06C46.0277 21.06 45.5357 20.988 45.0637 20.844C44.5997 20.692 44.2357 20.504 43.9717 20.28L44.3557 19.608C44.6197 19.816 44.9517 19.988 45.3517 20.124C45.7517 20.252 46.1677 20.316 46.5997 20.316C47.1757 20.316 47.5997 20.228 47.8717 20.052C48.1517 19.868 48.2917 19.612 48.2917 19.284C48.2917 19.052 48.2157 18.872 48.0637 18.744C47.9117 18.608 47.7197 18.508 47.4877 18.444C47.2557 18.372 46.9477 18.304 46.5637 18.24C46.0517 18.144 45.6397 18.048 45.3277 17.952C45.0157 17.848 44.7477 17.676 44.5237 17.436C44.3077 17.196 44.1997 16.864 44.1997 16.44C44.1997 15.912 44.4197 15.48 44.8597 15.144C45.2997 14.808 45.9117 14.64 46.6957 14.64C47.1037 14.64 47.5117 14.696 47.9197 14.808C48.3277 14.912 48.6637 15.052 48.9277 15.228L48.5557 15.912C48.0357 15.552 47.4157 15.372 46.6957 15.372C46.1517 15.372 45.7397 15.468 45.4597 15.66C45.1877 15.852 45.0517 16.104 45.0517 16.416C45.0517 16.656 45.1277 16.848 45.2797 16.992C45.4397 17.136 45.6357 17.244 45.8677 17.316C46.0997 17.38 46.4197 17.448 46.8277 17.52C47.3317 17.616 47.7357 17.712 48.0397 17.808C48.3437 17.904 48.6037 18.068 48.8197 18.3C49.0357 18.532 49.1437 18.852 49.1437 19.26C49.1437 19.812 48.9117 20.252 48.4477 20.58C47.9917 20.9 47.3557 21.06 46.5397 21.06ZM58.0388 12.6V21H57.1628V17.124H51.9068V21H51.0188V12.6H51.9068V16.344H57.1628V12.6H58.0388ZM64.2845 21.072C63.1965 21.072 62.3485 20.76 61.7405 20.136C61.1325 19.512 60.8285 18.604 60.8285 17.412V12.6H61.7165V17.376C61.7165 18.352 61.9365 19.08 62.3765 19.56C62.8165 20.04 63.4525 20.28 64.2845 20.28C65.1245 20.28 65.7645 20.04 66.2045 19.56C66.6445 19.08 66.8645 18.352 66.8645 17.376V12.6H67.7285V17.412C67.7285 18.604 67.4245 19.512 66.8165 20.136C66.2165 20.76 65.3725 21.072 64.2845 21.072ZM75.8164 16.668C76.3684 16.788 76.7924 17.028 77.0884 17.388C77.3924 17.74 77.5444 18.196 77.5444 18.756C77.5444 19.476 77.2764 20.032 76.7404 20.424C76.2124 20.808 75.4284 21 74.3884 21H70.5244V12.6H74.1484C75.0844 12.6 75.8084 12.788 76.3204 13.164C76.8404 13.54 77.1004 14.072 77.1004 14.76C77.1004 15.224 76.9844 15.62 76.7524 15.948C76.5284 16.268 76.2164 16.508 75.8164 16.668ZM71.4124 13.332V16.38H74.0884C74.7684 16.38 75.2924 16.252 75.6604 15.996C76.0284 15.732 76.2124 15.352 76.2124 14.856C76.2124 14.36 76.0284 13.984 75.6604 13.728C75.2924 13.464 74.7684 13.332 74.0884 13.332H71.4124ZM74.3764 20.268C75.1284 20.268 75.6964 20.14 76.0804 19.884C76.4644 19.628 76.6564 19.228 76.6564 18.684C76.6564 17.636 75.8964 17.112 74.3764 17.112H71.4124V20.268H74.3764Z" fill="#364182"/>
<rect id="Rectangle 1" x="7" y="24" width="79" height="1" fill="#364182"/>
<rect id="Rectangle 2" x="7" y="7" width="19" height="1" fill="#364182"/>
<rect id="Rectangle 3" x="67" y="7" width="19" height="1" fill="#364182"/>
</g>
</svg>
