<svg width="700" height="700" viewBox="0 0 700 700" fill="none" xmlns="http://www.w3.org/2000/svg">
<g id="Group 1">
<g id="add_file">
<path id="Vector" d="M448.757 420.72H333.863C331.239 420.728 328.648 420.134 326.286 418.984C323.925 417.834 321.855 416.158 320.236 414.083C318.587 411.99 317.436 409.547 316.869 406.939C316.302 404.331 316.335 401.628 316.965 399.035C327.528 354.579 327.527 308.249 316.964 263.793C316.335 261.2 316.302 258.497 316.869 255.889C317.436 253.282 318.587 250.839 320.235 248.745C321.855 246.671 323.924 244.995 326.286 243.845C328.648 242.694 331.239 242.101 333.863 242.109H448.757C452.895 242.121 456.895 243.609 460.044 246.308C463.192 249.007 465.285 252.741 465.95 256.846C473.523 306.267 473.523 356.562 465.95 405.983C465.285 410.087 463.192 413.822 460.044 416.52C456.895 419.219 452.895 420.707 448.757 420.72V420.72Z" fill="#F2F2F2"/>
<path id="Vector_2" d="M391.631 364.116C409.933 364.116 424.77 349.207 424.77 330.817C424.77 312.427 409.933 297.518 391.631 297.518C373.329 297.518 358.492 312.427 358.492 330.817C358.492 349.207 373.329 364.116 391.631 364.116Z" fill="white"/>
<path id="Vector_3" d="M407.48 326.474H395.954V314.891C395.954 313.739 395.498 312.635 394.688 311.82C393.877 311.006 392.778 310.548 391.631 310.548C390.485 310.548 389.385 311.006 388.575 311.82C387.764 312.635 387.309 313.739 387.309 314.891V326.474H375.782C374.636 326.474 373.536 326.931 372.726 327.746C371.915 328.56 371.46 329.665 371.46 330.817C371.46 331.969 371.915 333.074 372.726 333.888C373.536 334.703 374.636 335.16 375.782 335.16H387.309V346.742C387.309 347.894 387.764 348.999 388.575 349.814C389.385 350.628 390.485 351.086 391.631 351.086C392.778 351.086 393.877 350.628 394.688 349.814C395.498 348.999 395.954 347.894 395.954 346.742V335.16H407.48C408.627 335.16 409.726 334.703 410.537 333.888C411.347 333.074 411.803 331.969 411.803 330.817C411.803 329.665 411.347 328.56 410.537 327.746C409.726 326.931 408.627 326.474 407.48 326.474V326.474Z" fill="#E6E6E6"/>
<path id="Vector_4" d="M283.953 515.383L177.853 471.088C175.528 470.125 173.451 468.642 171.782 466.751C170.113 464.861 168.894 462.613 168.22 460.178C167.527 457.715 167.402 455.125 167.855 452.606C168.308 450.087 169.327 447.705 170.834 445.642C197.631 408.568 215.365 365.677 222.604 320.439C222.996 317.909 223.957 315.504 225.413 313.404C226.87 311.304 228.784 309.566 231.01 308.322C233.203 307.084 235.648 306.365 238.16 306.22C240.671 306.074 243.182 306.507 245.502 307.484L351.601 351.779C355.26 353.319 358.256 356.114 360.056 359.666C361.856 363.218 362.342 367.297 361.429 371.176C349.568 419.662 330.392 466.039 304.566 508.695C302.475 512.082 299.256 514.613 295.481 515.838C291.706 517.063 287.621 516.902 283.953 515.383Z" fill="#E6E6E6"/>
<path id="Vector_5" d="M242.185 315.506C241.071 315.036 239.865 314.828 238.659 314.897C237.453 314.967 236.279 315.311 235.225 315.905C234.142 316.513 233.212 317.36 232.504 318.383C231.796 319.406 231.329 320.578 231.14 321.809C223.685 368.4 205.421 412.572 177.824 450.754C177.089 451.757 176.591 452.916 176.369 454.141C176.147 455.367 176.206 456.627 176.542 457.827L176.543 457.827C176.867 458.997 177.452 460.076 178.254 460.984C179.056 461.892 180.053 462.604 181.17 463.066L287.27 507.361C289.029 508.096 290.991 508.18 292.805 507.598C294.62 507.016 296.17 505.805 297.18 504.182C322.548 462.282 341.384 416.727 353.034 369.101C353.467 367.236 353.227 365.278 352.357 363.575C351.487 361.872 350.044 360.535 348.284 359.801L242.185 315.506Z" fill="white"/>
<path id="Vector_6" d="M298.678 414.11L243.001 390.865C240.886 389.979 239.207 388.286 238.332 386.158C237.457 384.029 237.458 381.639 238.335 379.511L239.631 376.376C240.513 374.25 242.198 372.563 244.316 371.684C246.435 370.805 248.814 370.806 250.931 371.688L306.608 394.932C308.724 395.818 310.403 397.511 311.278 399.64C312.153 401.768 312.151 404.159 311.274 406.286L309.978 409.421C309.096 411.547 307.412 413.234 305.293 414.113C303.175 414.992 300.796 414.991 298.678 414.11V414.11Z" fill="#8685EF"/>
<path id="Vector_7" d="M282.301 453.718L226.624 430.474C224.508 429.588 222.829 427.895 221.954 425.766C221.079 423.638 221.08 421.247 221.958 419.12L223.254 415.985C224.135 413.859 225.82 412.172 227.939 411.293C230.057 410.414 232.436 410.415 234.553 411.296L290.23 434.541C292.346 435.427 294.025 437.12 294.9 439.248C295.775 441.377 295.774 443.767 294.897 445.895L293.6 449.03C292.719 451.156 291.034 452.843 288.915 453.722C286.797 454.601 284.418 454.6 282.301 453.718V453.718Z" fill="#8685EF"/>
<path id="Vector_8" d="M320.988 358.443C320.155 358.443 319.329 358.28 318.557 357.965L262.454 335.173C260.862 334.524 259.59 333.266 258.919 331.676C258.247 330.086 258.231 328.293 258.873 326.691L263.194 315.953C263.839 314.351 265.09 313.073 266.673 312.398C268.256 311.723 270.041 311.708 271.635 312.356L327.738 335.148C329.331 335.797 330.603 337.054 331.274 338.644C331.945 340.234 331.961 342.027 331.319 343.629L326.998 354.367C326.513 355.57 325.682 356.6 324.612 357.326C323.541 358.052 322.28 358.441 320.988 358.443V358.443Z" fill="#CCCCCC"/>
</g>
<g id="background">
<path id="Vector_9" d="M461.724 185.456H346.831C344.316 185.464 341.832 184.895 339.568 183.793C337.305 182.69 335.321 181.084 333.769 179.095V179.095C332.188 177.088 331.084 174.745 330.54 172.244C329.997 169.743 330.029 167.151 330.633 164.664C341.222 120.097 341.222 73.6511 330.632 29.0841C330.028 26.5975 329.997 24.0053 330.541 21.5047C331.084 19.0041 332.188 16.661 333.768 14.6537C335.321 12.6651 337.304 11.0585 339.568 9.95624C341.832 8.85397 344.315 8.28507 346.831 8.29285H461.724C465.691 8.3043 469.525 9.73026 472.543 12.3167C475.561 14.9032 477.568 18.4823 478.206 22.4164C485.767 71.7644 485.767 121.985 478.206 171.332C477.568 175.267 475.561 178.846 472.543 181.432C469.525 184.019 465.691 185.445 461.724 185.456V185.456Z" fill="#E6E6E6"/>
<path id="Vector_10" d="M346.831 16.9795C345.623 16.9754 344.43 17.2483 343.343 17.7772C342.255 18.3062 341.303 19.0773 340.557 20.032C339.789 21.0102 339.253 22.1515 338.989 23.3691C338.726 24.5868 338.743 25.8487 339.038 27.0588C349.944 72.9575 349.945 120.791 339.039 166.69C338.744 167.9 338.727 169.162 338.99 170.379C339.252 171.596 339.788 172.738 340.556 173.715L340.557 173.716C341.303 174.671 342.255 175.442 343.343 175.972C344.43 176.501 345.623 176.773 346.831 176.769H461.724C463.629 176.77 465.472 176.091 466.926 174.854C468.38 173.617 469.349 171.901 469.661 170.013C477.088 121.539 477.088 72.2095 469.661 23.7363C469.349 21.848 468.38 20.1324 466.926 18.895C465.472 17.6577 463.629 16.9789 461.724 16.9795L346.831 16.9795Z" fill="white"/>
<path id="Vector_11" d="M436.652 58.7489H376.361C374.069 58.7464 371.871 57.8304 370.251 56.202C368.63 54.5735 367.719 52.3656 367.716 50.0626V46.6681C367.719 44.3651 368.63 42.1572 370.251 40.5287C371.871 38.9002 374.069 37.9843 376.361 37.9818H436.652C438.944 37.9843 441.141 38.9002 442.762 40.5287C444.382 42.1572 445.294 44.3651 445.296 46.6681V50.0627C445.294 52.3656 444.382 54.5736 442.762 56.202C441.141 57.8305 438.944 58.7464 436.652 58.7489Z" fill="#E6E6E6"/>
<path id="Vector_12" d="M436.652 101.64H376.361C374.069 101.638 371.871 100.722 370.251 99.0935C368.63 97.465 367.719 95.2571 367.716 92.9541V89.5596C367.719 87.2566 368.63 85.0487 370.251 83.4202C371.871 81.7918 374.069 80.8758 376.361 80.8733H436.652C438.944 80.8758 441.141 81.7918 442.762 83.4202C444.382 85.0487 445.294 87.2566 445.296 89.5596V92.9541C445.294 95.2571 444.382 97.465 442.762 99.0935C441.141 100.722 438.944 101.638 436.652 101.64Z" fill="#E6E6E6"/>
<path id="Vector_13" d="M436.652 144.532H376.361C374.069 144.529 371.871 143.613 370.251 141.985C368.63 140.357 367.719 138.149 367.716 135.846V132.451C367.719 130.148 368.63 127.94 370.251 126.312C371.871 124.683 374.069 123.767 376.361 123.765H436.652C438.944 123.767 441.141 124.683 442.762 126.312C444.382 127.94 445.294 130.148 445.296 132.451V135.846C445.294 138.149 444.382 140.357 442.762 141.985C441.141 143.613 438.944 144.529 436.652 144.532V144.532Z" fill="#E6E6E6"/>
<path id="Vector_14" d="M677.847 295.487H562.954C560.439 295.495 557.955 294.926 555.692 293.824C553.428 292.721 551.445 291.115 549.892 289.126V289.126C548.311 287.119 547.207 284.776 546.664 282.275C546.12 279.774 546.152 277.182 546.756 274.695C557.345 230.128 557.345 183.682 546.755 139.115C546.152 136.629 546.12 134.036 546.664 131.536C547.207 129.035 548.311 126.692 549.892 124.685C551.444 122.696 553.428 121.09 555.691 119.987C557.955 118.885 560.439 118.316 562.954 118.324H677.847C681.814 118.335 685.648 119.761 688.666 122.348C691.685 124.934 693.691 128.513 694.329 132.447C701.89 181.795 701.89 232.016 694.329 281.363C693.691 285.298 691.685 288.877 688.666 291.463C685.648 294.05 681.814 295.476 677.847 295.487Z" fill="#E6E6E6"/>
<path id="Vector_15" d="M562.954 127.011C561.746 127.006 560.553 127.279 559.466 127.808C558.379 128.337 557.426 129.108 556.68 130.063C555.912 131.041 555.376 132.183 555.113 133.4C554.85 134.618 554.866 135.88 555.162 137.09C566.068 182.989 566.068 230.822 555.163 276.721C554.867 277.931 554.85 279.193 555.113 280.41C555.376 281.627 555.912 282.769 556.68 283.746L556.68 283.747C557.426 284.702 558.379 285.473 559.466 286.003C560.553 286.532 561.746 286.804 562.954 286.8H677.847C679.752 286.801 681.596 286.122 683.049 284.885C684.503 283.648 685.472 281.932 685.785 280.044C693.212 231.57 693.212 182.241 685.785 133.767C685.472 131.879 684.503 130.163 683.049 128.926C681.596 127.689 679.752 127.01 677.847 127.01L562.954 127.011Z" fill="white"/>
<path id="Vector_16" d="M652.775 190.497H592.484C590.192 190.494 587.995 189.578 586.374 187.95C584.753 186.321 583.842 184.113 583.839 181.81V178.416C583.842 176.113 584.753 173.905 586.374 172.276C587.995 170.648 590.192 169.732 592.484 169.729H652.775C655.067 169.732 657.264 170.648 658.885 172.276C660.506 173.905 661.417 176.113 661.42 178.416V181.81C661.417 184.113 660.506 186.321 658.885 187.95C657.264 189.578 655.067 190.494 652.775 190.497V190.497Z" fill="#E6E6E6"/>
<path id="Vector_17" d="M652.775 233.388H592.484C590.192 233.386 587.995 232.47 586.374 230.841C584.753 229.213 583.842 227.005 583.839 224.702V221.307C583.842 219.004 584.753 216.796 586.374 215.168C587.995 213.539 590.192 212.623 592.484 212.621H652.775C655.067 212.624 657.264 213.539 658.885 215.168C660.506 216.796 661.417 219.004 661.42 221.307V224.702C661.417 227.005 660.506 229.213 658.885 230.841C657.264 232.47 655.067 233.386 652.775 233.388V233.388Z" fill="#E6E6E6"/>
<path id="Vector_18" d="M433.415 24.6122H372.901C371.182 24.6103 369.534 23.9232 368.318 22.7019C367.103 21.4805 366.419 19.8245 366.417 18.0972V6.51499C366.419 4.78771 367.103 3.13172 368.318 1.91035C369.534 0.68897 371.182 0.00194662 372.901 0H433.415C435.134 0.00194662 436.782 0.68897 437.998 1.91035C439.213 3.13172 439.897 4.78771 439.899 6.51499V18.0972C439.897 19.8245 439.213 21.4805 437.998 22.7019C436.782 23.9232 435.134 24.6103 433.415 24.6122Z" fill="#CCCCCC"/>
<path id="Vector_19" d="M652.42 136.091H591.906C590.187 136.089 588.539 135.402 587.323 134.181C586.108 132.959 585.424 131.303 585.422 129.576V117.994C585.424 116.267 586.108 114.611 587.323 113.389C588.539 112.168 590.187 111.481 591.906 111.479H652.42C654.139 111.481 655.787 112.168 657.003 113.389C658.218 114.611 658.902 116.267 658.904 117.994V129.576C658.902 131.303 658.218 132.959 657.003 134.181C655.787 135.402 654.139 136.089 652.42 136.091Z" fill="#CCCCCC"/>
<path id="Vector_20" d="M127.651 681.991H145.316L150.838 613.529H127.648L127.651 681.991Z" fill="#FFB8B8"/>
<path id="Vector_21" d="M123.146 676.196L157.933 676.195H157.934C160.846 676.195 163.728 676.771 166.418 677.89C169.108 679.01 171.552 680.651 173.61 682.719C175.669 684.788 177.302 687.243 178.416 689.946C179.53 692.649 180.104 695.545 180.103 698.471V699.195L123.147 699.197L123.146 676.196Z" fill="#2F2E41"/>
<path id="Vector_22" d="M32.5568 681.991H50.2213L58.6256 613.529H32.554L32.5568 681.991Z" fill="#FFB8B8"/>
<path id="Vector_23" d="M28.0516 676.196L62.8386 676.195H62.84C65.7513 676.195 68.6341 676.771 71.3238 677.89C74.0135 679.01 76.4574 680.651 78.516 682.719C80.5746 684.788 82.2076 687.243 83.3217 689.946C84.4358 692.649 85.0092 695.545 85.0092 698.471V699.195L28.0527 699.197L28.0516 676.196Z" fill="#2F2E41"/>
<path id="Vector_24" d="M35.6909 660.364C33.889 660.363 32.1531 659.682 30.8281 658.455V658.455C30.1169 657.803 29.544 657.013 29.144 656.133C28.7439 655.253 28.525 654.301 28.5002 653.334L21.4161 398.216L122.002 423.483L153.036 517.035C157.038 529.07 158.771 541.749 158.145 554.423L154.291 645.107C154.203 646.965 153.406 648.717 152.066 650C150.726 651.283 148.946 651.998 147.095 651.996H130.224C128.483 651.989 126.803 651.352 125.491 650.2C124.18 649.049 123.326 647.461 123.085 645.728L111.027 545.627C109.974 537.818 107.255 530.329 103.057 523.672L79.3274 485.92C79.1688 485.668 78.9364 485.471 78.6623 485.357C78.3881 485.242 78.0854 485.216 77.7956 485.281C77.5058 485.346 77.2431 485.499 77.0434 485.72C76.8437 485.94 76.7166 486.218 76.6797 486.514L58.0577 653.136C57.8578 654.826 57.0709 656.391 55.8356 657.555C54.6003 658.72 52.9958 659.409 51.3046 659.501L36.101 660.351C35.9642 660.359 35.8278 660.364 35.6909 660.364Z" fill="#2F2E41"/>
<path id="Vector_25" d="M105.263 233.044C124.807 233.044 140.651 217.124 140.651 197.486C140.651 177.847 124.807 161.927 105.263 161.927C85.7188 161.927 69.875 177.847 69.875 197.486C69.875 217.124 85.7188 233.044 105.263 233.044Z" fill="#FFB8B8"/>
<path id="Vector_26" d="M121.52 433.859C120.911 433.858 120.304 433.78 119.714 433.628H119.713L19.9159 407.916C18.1316 407.457 16.5902 406.328 15.6086 404.762C14.627 403.196 14.2797 401.312 14.6383 399.497L37.5577 275.435C38.9856 268.264 42.1243 261.548 46.7043 255.864C51.2843 250.18 57.1687 245.698 63.8523 242.803C70.3647 239.907 77.4864 238.666 84.5889 239.19C91.6915 239.714 98.5565 241.987 104.578 245.807C105.975 246.683 107.383 247.638 108.76 248.646C114.306 252.757 118.828 258.103 121.973 264.264C125.117 270.426 126.798 277.236 126.884 284.159L128.707 426.517C128.719 427.475 128.542 428.425 128.187 429.313C127.831 430.202 127.304 431.011 126.636 431.693C125.968 432.376 125.172 432.919 124.294 433.29C123.415 433.662 122.473 433.855 121.52 433.859V433.859Z" fill="#8685EF"/>
<path id="Vector_27" d="M30.1842 435.318C28.9937 433.557 28.2019 431.556 27.8644 429.455C27.5269 427.354 27.652 425.204 28.2309 423.156C28.8097 421.109 29.8283 419.214 31.2148 417.605C32.6013 415.996 34.3221 414.712 36.2559 413.844L31.817 362.3L55.3399 375.111L55.9488 422.093C57.1854 425.454 57.1522 429.154 55.8553 432.492C54.5584 435.83 52.0879 438.574 48.9121 440.204C45.7363 441.835 42.0757 442.237 38.6241 441.337C35.1724 440.436 32.1695 438.294 30.1843 435.318H30.1842Z" fill="#FFB8B8"/>
<path id="Vector_28" d="M38.588 407.027C37.9243 407.026 37.2633 406.942 36.6203 406.776C35.2373 406.422 33.9753 405.699 32.9679 404.683C31.9605 403.667 31.2451 402.396 30.8974 401.005L19.3374 354.845C15.2975 338.723 17.2234 321.675 24.7567 306.873L48.9752 259.267C50.5062 253.567 54.2052 248.701 59.2747 245.717C64.3441 242.732 70.3778 241.87 76.0744 243.315C78.9137 244.035 81.5824 245.315 83.9259 247.08C86.2693 248.844 88.2407 251.059 89.7259 253.595C91.2417 256.167 92.233 259.017 92.6422 261.978C93.0513 264.939 92.8701 267.952 92.1091 270.842L57.6339 348.307L58.0433 394.687C58.054 396.324 57.5643 397.924 56.6407 399.271C55.717 400.619 54.4039 401.649 52.8788 402.222L41.3416 406.528C40.4606 406.857 39.5281 407.026 38.588 407.027Z" fill="#8685EF"/>
<path id="Vector_29" d="M203.614 416.358C201.509 416.117 199.483 415.414 197.678 414.301C195.873 413.187 194.333 411.689 193.166 409.913C192 408.136 191.235 406.125 190.926 404.019C190.616 401.913 190.77 399.765 191.377 397.726L149.602 367.483L174.61 357.925L210.446 388.11C213.788 389.36 216.557 391.799 218.229 394.965C219.901 398.13 220.359 401.801 219.517 405.283C218.674 408.765 216.59 411.816 213.659 413.857C210.728 415.898 207.154 416.788 203.614 416.358H203.614Z" fill="#FFB8B8"/>
<path id="Vector_30" d="M181.745 394.274C180.513 394.273 179.299 393.985 178.197 393.432L135.838 372.125C121.043 364.683 109.44 352.096 103.188 336.704L83.078 287.204C79.7779 282.32 78.5202 276.328 79.5761 270.52C80.632 264.712 83.917 259.554 88.7228 256.158C91.1239 254.461 93.8371 253.262 96.7042 252.629C99.5713 251.997 102.535 251.945 105.422 252.475C108.344 253.003 111.132 254.108 113.625 255.727C116.118 257.345 118.267 259.444 119.947 261.903L155.888 338.693L191.139 368.637C192.381 369.696 193.268 371.112 193.682 372.695C194.096 374.277 194.017 375.95 193.454 377.485L189.175 389.079C188.617 390.6 187.608 391.912 186.284 392.838C184.953 393.773 183.369 394.274 181.745 394.274V394.274Z" fill="#8685EF"/>
<path id="Vector_31" d="M97.832 233.589C99.7123 234.415 103.563 219.361 101.838 216.35C99.2729 211.872 99.4245 211.904 97.7217 208.942C96.019 205.979 95.638 201.924 97.843 199.317C100.048 196.711 105.151 197.057 106.157 200.325C105.51 194.117 111.621 189.127 117.674 187.725C123.727 186.322 130.111 187.193 136.198 185.945C143.261 184.497 150.611 178.547 147.792 170.742C147.309 169.443 146.585 168.247 145.658 167.218C142.402 163.54 137.848 161.969 133.394 160.45C124.13 157.29 114.612 154.091 104.834 154.44C96.7779 154.863 89.0192 157.637 82.5075 162.422C75.9958 167.207 71.0135 173.796 68.1704 181.382C67.4966 183.28 66.9746 185.228 66.6094 187.21C63.2533 205.342 73.7323 223.227 90.7521 230.132L97.832 233.589Z" fill="#2F2E41"/>
<path id="Vector_32" opacity="0.2" d="M56.048 395.74L56.8505 348.066L81.9828 297.291L61.8113 349.411L56.048 395.74Z" fill="black"/>
<path id="Vector_33" d="M203.156 700H1.44082C1.05869 700 0.692234 699.847 0.422028 699.576C0.151821 699.304 0 698.936 0 698.552C0 698.168 0.151821 697.8 0.422028 697.528C0.692234 697.257 1.05869 697.104 1.44082 697.104H203.156C203.538 697.104 203.905 697.257 204.175 697.528C204.445 697.8 204.597 698.168 204.597 698.552C204.597 698.936 204.445 699.304 204.175 699.576C203.905 699.847 203.538 700 203.156 700Z" fill="#CCCCCC"/>
</g>
</g>
</svg>
