<svg width="701" height="701" viewBox="0 0 701 701" fill="none" xmlns="http://www.w3.org/2000/svg">
<g id="download_img">
<g id="page">
<path id="Vector" d="M539.266 0.678627H61.8635C45.6773 0.695465 30.1596 6.79933 18.7142 17.6504C7.26884 28.5014 0.830644 43.2145 0.811615 58.5601V590.019C0.830644 605.364 7.26884 620.076 18.7142 630.927C30.1596 641.778 45.6773 647.882 61.8635 647.9H539.266C555.452 647.882 570.969 641.778 582.415 630.927C593.86 620.076 600.298 605.364 600.317 590.019V58.5601C600.298 43.2145 593.86 28.5014 582.415 17.6504C570.969 6.79933 555.452 0.695465 539.266 0.678627Z" fill="#E6E6E6"/>
<path id="Vector_2" d="M539.266 17.3413H61.8635C50.3369 17.3533 39.286 21.7 31.1352 29.4276C22.9844 37.1551 18.4009 47.6321 18.387 58.5601V590.019C18.4009 600.947 22.9844 611.424 31.1352 619.151C39.286 626.878 50.3369 631.224 61.8635 631.236H539.266C550.792 631.224 561.843 626.878 569.994 619.15C578.145 611.424 582.729 600.947 582.742 590.019V58.5601C582.729 47.6321 578.145 37.1551 569.994 29.4276C561.843 21.7 550.792 17.3533 539.266 17.3413Z" fill="white"/>
<path id="Vector_3" d="M467.417 309.377H225.998C224.662 309.378 223.339 309.129 222.104 308.646C220.869 308.162 219.747 307.452 218.802 306.556C217.856 305.662 217.106 304.598 216.595 303.428C216.083 302.258 215.819 301.005 215.819 299.737C215.819 298.47 216.083 297.216 216.595 296.046C217.106 294.877 217.856 293.813 218.802 292.917C219.747 292.023 220.869 291.313 222.104 290.829C223.339 290.346 224.662 290.097 225.998 290.098H467.417C470.111 290.102 472.694 291.118 474.598 292.926C476.502 294.732 477.572 297.182 477.572 299.737C477.572 302.291 476.502 304.741 474.598 306.549C472.694 308.357 470.111 309.373 467.417 309.377Z" fill="#E6E6E6"/>
<path id="Vector_4" d="M509.354 341.907H225.998C224.662 341.908 223.339 341.661 222.104 341.177C220.869 340.692 219.747 339.983 218.802 339.088C217.856 338.193 217.106 337.13 216.595 335.96C216.083 334.789 215.819 333.535 215.819 332.268C215.819 331.002 216.083 329.747 216.595 328.577C217.106 327.407 217.856 326.344 218.802 325.449C219.747 324.554 220.869 323.844 222.104 323.36C223.339 322.876 224.662 322.629 225.998 322.63H509.354C512.051 322.63 514.637 323.645 516.544 325.453C518.45 327.26 519.521 329.713 519.521 332.268C519.521 334.825 518.45 337.277 516.544 339.084C514.637 340.892 512.051 341.907 509.354 341.907Z" fill="#E6E6E6"/>
<path id="Vector_5" d="M467.417 455.164H225.998C224.662 455.165 223.339 454.917 222.104 454.434C220.869 453.949 219.747 453.239 218.802 452.344C217.856 451.45 217.106 450.386 216.595 449.216C216.083 448.046 215.819 446.791 215.819 445.525C215.819 444.258 216.083 443.004 216.595 441.834C217.106 440.663 217.856 439.6 218.802 438.705C219.747 437.811 220.869 437.1 222.104 436.616C223.339 436.133 224.662 435.885 225.998 435.886H467.417C470.112 435.886 472.699 436.901 474.606 438.709C476.513 440.517 477.583 442.968 477.583 445.525C477.583 448.081 476.513 450.533 474.606 452.341C472.699 454.149 470.112 455.164 467.417 455.164Z" fill="#E6E6E6"/>
<path id="Vector_6" d="M509.354 487.695H225.998C224.662 487.696 223.339 487.447 222.104 486.964C220.869 486.48 219.747 485.771 218.802 484.876C217.856 483.98 217.106 482.917 216.595 481.746C216.083 480.577 215.819 479.323 215.819 478.056C215.819 476.789 216.083 475.534 216.595 474.365C217.106 473.195 217.856 472.132 218.802 471.236C219.747 470.341 220.869 469.631 222.104 469.148C223.339 468.664 224.662 468.415 225.998 468.417H509.354C510.69 468.415 512.013 468.664 513.249 469.148C514.483 469.631 515.606 470.341 516.551 471.236C517.496 472.132 518.246 473.195 518.757 474.365C519.27 475.534 519.532 476.789 519.532 478.056C519.532 479.323 519.27 480.577 518.757 481.746C518.246 482.917 517.496 483.98 516.551 484.876C515.606 485.771 514.483 486.48 513.249 486.964C512.013 487.447 510.69 487.696 509.354 487.695Z" fill="#E6E6E6"/>
<path id="Vector_7" d="M171.918 356.675H86.4834C85.1907 356.674 83.9513 356.186 83.0379 355.32C82.1232 354.453 81.6094 353.279 81.6081 352.053V279.953C81.6094 278.728 82.1232 277.552 83.0379 276.687C83.9513 275.819 85.1907 275.332 86.4834 275.331H171.918C173.211 275.332 174.45 275.819 175.365 276.687C176.278 277.552 176.792 278.728 176.793 279.953V352.053C176.792 353.279 176.278 354.453 175.365 355.32C174.45 356.186 173.211 356.674 171.918 356.675Z" fill="#E6E6E6"/>
<path id="Vector_8" d="M171.918 502.462H86.4834C85.1907 502.461 83.9513 501.974 83.0379 501.107C82.1232 500.241 81.6094 499.066 81.6081 497.84V425.74C81.6094 424.514 82.1232 423.339 83.0379 422.473C83.9513 421.607 85.1907 421.119 86.4834 421.118H171.918C173.211 421.119 174.45 421.607 175.365 422.473C176.278 423.339 176.792 424.514 176.793 425.74V497.84C176.792 499.066 176.278 500.241 175.365 501.107C174.45 501.974 173.211 502.461 171.918 502.462Z" fill="#E6E6E6"/>
</g>
<g id="download">
<path id="Ellipse 44" d="M571.413 700.679C642.878 700.679 700.812 645.753 700.812 578C700.812 510.246 642.878 455.321 571.413 455.321C499.949 455.321 442.015 510.246 442.015 578C442.015 645.753 499.949 700.679 571.413 700.679Z" fill="#8685EF"/>
<path id="Vector_9" d="M619.303 583.595L578.316 618.989C577.424 619.742 576.358 620.336 575.184 620.732C574.009 621.129 572.751 621.321 571.486 621.296H571.349C570.08 621.32 568.819 621.128 567.642 620.731C566.465 620.334 565.395 619.742 564.498 618.989L523.531 583.595C523.395 583.464 523.238 583.35 523.101 583.235C521.467 581.765 520.594 579.811 520.674 577.802C520.755 575.793 521.782 573.893 523.531 572.517C525.402 571.043 527.873 570.222 530.44 570.222C533.008 570.222 535.479 571.043 537.35 572.517L561.629 593.789V538.94C561.743 536.827 562.822 534.831 564.647 533.37C566.47 531.909 568.894 531.093 571.417 531.093C573.939 531.093 576.365 531.909 578.188 533.37C580.011 534.831 581.092 536.827 581.205 538.94V593.789L605.465 572.517C607.34 571.042 609.814 570.222 612.384 570.222C614.955 570.222 617.428 571.042 619.303 572.517C619.44 572.632 619.576 572.746 619.732 572.878C621.364 574.35 622.233 576.303 622.153 578.31C622.072 580.319 621.048 582.218 619.303 583.595Z" fill="white"/>
</g>
<g id="select_page">
<path id="Vector_10" d="M467.684 147.086H289.696C287 147.086 284.413 146.071 282.508 144.263C280.601 142.456 279.529 140.003 279.529 137.447C279.529 134.89 280.601 132.439 282.508 130.631C284.413 128.824 287 127.809 289.696 127.809H467.684C470.381 127.809 472.967 128.824 474.873 130.631C476.78 132.439 477.851 134.89 477.851 137.447C477.851 140.003 476.78 142.456 474.873 144.263C472.967 146.071 470.381 147.086 467.684 147.086Z" fill="#CCCCCC"/>
<path id="Vector_11" d="M509.622 179.618H289.696C288.361 179.618 287.039 179.367 285.806 178.884C284.572 178.399 283.452 177.69 282.508 176.794C281.563 175.899 280.814 174.837 280.303 173.666C279.793 172.497 279.529 171.244 279.529 169.979C279.529 168.712 279.793 167.459 280.303 166.29C280.814 165.12 281.563 164.058 282.508 163.163C283.452 162.267 284.572 161.557 285.806 161.073C287.039 160.589 288.361 160.339 289.696 160.339H509.622C512.319 160.339 514.904 161.355 516.811 163.163C518.718 164.971 519.789 167.422 519.789 169.979C519.789 172.535 518.718 174.986 516.811 176.794C514.904 178.601 512.319 179.618 509.622 179.618Z" fill="#CCCCCC"/>
<path id="Vector_12" d="M250.304 219.041H86.2145C84.923 219.04 83.6836 218.552 82.7689 217.685C81.8555 216.819 81.3417 215.644 81.3405 214.419V93.0064C81.3417 91.7808 81.8555 90.6058 82.7689 89.7398C83.6836 88.8738 84.923 88.3855 86.2145 88.3843H250.304C251.597 88.3855 252.836 88.8738 253.75 89.7398C254.664 90.6058 255.178 91.7808 255.179 93.0064V214.419C255.178 215.644 254.664 216.819 253.75 217.685C252.836 218.552 251.597 219.04 250.304 219.041Z" fill="#8685EF"/>
</g>
</g>
</svg>
