<svg width="783" height="702" viewBox="0 0 783 702" fill="none" xmlns="http://www.w3.org/2000/svg">
<g id="download_img">
<g id="page">
<path id="Vector" d="M654.659 109.992H278.34C265.581 110.006 253.349 115.081 244.327 124.103C235.305 133.125 230.23 145.358 230.215 158.117V599.993C230.23 612.752 235.305 624.984 244.327 634.006C253.349 643.028 265.581 648.103 278.34 648.118H654.659C667.418 648.103 679.65 643.028 688.672 634.006C697.694 624.984 702.769 612.752 702.784 599.993V158.117C702.769 145.358 697.694 133.125 688.672 124.103C679.65 115.081 667.418 110.006 654.659 109.992V109.992Z" fill="#E6E6E6"/>
<path id="Vector_2" d="M654.659 123.846H278.34C269.254 123.856 260.543 127.47 254.118 133.895C247.693 140.32 244.08 149.031 244.069 158.117V599.993C244.08 609.079 247.693 617.79 254.118 624.215C260.543 630.639 269.254 634.253 278.34 634.263H654.659C663.745 634.253 672.456 630.639 678.881 624.214C685.306 617.79 688.92 609.079 688.93 599.993V158.117C688.92 149.031 685.306 140.32 678.881 133.895C672.456 127.47 663.745 123.856 654.659 123.846V123.846Z" fill="white"/>
<path id="Vector_3" d="M598.023 366.656H407.721C406.668 366.657 405.625 366.45 404.652 366.048C403.678 365.646 402.794 365.056 402.049 364.311C401.303 363.567 400.712 362.683 400.309 361.71C399.906 360.737 399.698 359.695 399.698 358.641C399.698 357.588 399.906 356.545 400.309 355.572C400.712 354.6 401.303 353.716 402.049 352.971C402.794 352.227 403.678 351.637 404.652 351.235C405.625 350.833 406.668 350.626 407.721 350.627H598.023C600.147 350.63 602.183 351.475 603.684 352.978C605.185 354.48 606.028 356.517 606.028 358.641C606.028 360.765 605.185 362.802 603.684 364.305C602.183 365.808 600.147 366.653 598.023 366.656V366.656Z" fill="#E6E6E6"/>
<path id="Vector_4" d="M631.081 393.703H407.721C406.668 393.704 405.625 393.498 404.652 393.096C403.678 392.693 402.794 392.103 402.049 391.359C401.303 390.615 400.712 389.731 400.309 388.758C399.906 387.785 399.698 386.742 399.698 385.689C399.698 384.636 399.906 383.593 400.309 382.62C400.712 381.647 401.303 380.763 402.049 380.019C402.794 379.275 403.678 378.685 404.652 378.282C405.625 377.88 406.668 377.674 407.721 377.675H631.081C633.207 377.675 635.245 378.519 636.748 380.022C638.251 381.525 639.095 383.564 639.095 385.689C639.095 387.815 638.251 389.853 636.748 391.356C635.245 392.859 633.207 393.703 631.081 393.703Z" fill="#E6E6E6"/>
<path id="Vector_5" d="M598.023 487.869H407.721C406.668 487.87 405.625 487.664 404.652 487.262C403.678 486.859 402.794 486.269 402.049 485.525C401.303 484.781 400.712 483.897 400.309 482.924C399.906 481.951 399.698 480.908 399.698 479.855C399.698 478.802 399.906 477.759 400.309 476.786C400.712 475.813 401.303 474.929 402.049 474.185C402.794 473.441 403.678 472.85 404.652 472.448C405.625 472.046 406.668 471.84 407.721 471.841H598.023C600.148 471.841 602.187 472.685 603.69 474.188C605.193 475.691 606.037 477.729 606.037 479.855C606.037 481.98 605.193 484.019 603.69 485.522C602.187 487.025 600.148 487.869 598.023 487.869V487.869Z" fill="#E6E6E6"/>
<path id="Vector_6" d="M631.081 514.917H407.721C406.668 514.918 405.625 514.711 404.652 514.309C403.678 513.907 402.794 513.317 402.049 512.573C401.303 511.828 400.712 510.944 400.309 509.971C399.906 508.999 399.698 507.956 399.698 506.903C399.698 505.849 399.906 504.806 400.309 503.834C400.712 502.861 401.303 501.977 402.049 501.232C402.794 500.488 403.678 499.898 404.652 499.496C405.625 499.094 406.668 498.887 407.721 498.888H631.081C632.134 498.887 633.177 499.094 634.151 499.496C635.124 499.898 636.009 500.488 636.754 501.232C637.499 501.977 638.09 502.861 638.493 503.834C638.897 504.806 639.104 505.849 639.104 506.903C639.104 507.956 638.897 508.999 638.493 509.971C638.09 510.944 637.499 511.828 636.754 512.573C636.009 513.317 635.124 513.907 634.151 514.309C633.177 514.711 632.134 514.918 631.081 514.917Z" fill="#E6E6E6"/>
<path id="Vector_7" d="M365.092 405.982H297.747C296.728 405.981 295.751 405.575 295.031 404.855C294.31 404.134 293.905 403.158 293.904 402.139V342.192C293.905 341.173 294.31 340.196 295.031 339.476C295.751 338.755 296.728 338.35 297.747 338.349H365.092C366.111 338.35 367.088 338.755 367.809 339.476C368.529 340.196 368.934 341.173 368.935 342.192V402.139C368.934 403.158 368.529 404.134 367.809 404.855C367.088 405.575 366.111 405.981 365.092 405.982V405.982Z" fill="#E6E6E6"/>
<path id="Vector_8" d="M365.092 527.195H297.747C296.728 527.194 295.751 526.789 295.031 526.068C294.31 525.348 293.905 524.371 293.904 523.352V463.405C293.905 462.386 294.31 461.409 295.031 460.689C295.751 459.969 296.728 459.563 297.747 459.562H365.092C366.111 459.563 367.088 459.969 367.809 460.689C368.529 461.409 368.934 462.386 368.935 463.405V523.352C368.934 524.371 368.529 525.348 367.809 526.068C367.088 526.789 366.111 527.194 365.092 527.195V527.195Z" fill="#E6E6E6"/>
</g>
<g id="download">
<path id="Ellipse 44" d="M680 692C736.333 692 782 646.333 782 590C782 533.667 736.333 488 680 488C623.667 488 578 533.667 578 590C578 646.333 623.667 692 680 692Z" fill="#8685EF"/>
<path id="Vector_9" d="M717.75 594.652L685.441 624.08C684.738 624.706 683.898 625.2 682.972 625.529C682.046 625.859 681.054 626.019 680.057 625.998H679.949C678.949 626.018 677.955 625.858 677.027 625.528C676.099 625.198 675.256 624.706 674.549 624.08L642.256 594.652C642.149 594.543 642.025 594.448 641.917 594.353C640.629 593.13 639.941 591.506 640.004 589.835C640.068 588.165 640.877 586.585 642.256 585.441C643.731 584.216 645.679 583.533 647.702 583.533C649.726 583.533 651.674 584.216 653.149 585.441L672.287 603.128V557.524C672.377 555.767 673.228 554.108 674.666 552.893C676.103 551.678 678.014 551 680.003 551C681.991 551 683.903 551.678 685.34 552.893C686.777 554.108 687.629 555.767 687.718 557.524V603.128L706.842 585.441C708.32 584.215 710.27 583.533 712.296 583.533C714.322 583.533 716.272 584.215 717.75 585.441C717.858 585.537 717.965 585.632 718.088 585.741C719.374 586.965 720.059 588.589 719.996 590.258C719.932 591.928 719.125 593.507 717.75 594.652V594.652Z" fill="white"/>
</g>
<g id="select_page">
<path id="Vector_10" d="M598.234 231.721H457.932C455.807 231.721 453.768 230.877 452.266 229.374C450.763 227.871 449.918 225.832 449.918 223.707C449.918 221.581 450.763 219.543 452.266 218.04C453.768 216.537 455.807 215.693 457.932 215.693H598.234C600.36 215.693 602.398 216.537 603.901 218.04C605.404 219.543 606.248 221.581 606.248 223.707C606.248 225.832 605.404 227.871 603.901 229.374C602.398 230.877 600.36 231.721 598.234 231.721Z" fill="#CCCCCC"/>
<path id="Vector_11" d="M631.292 258.769H457.932C456.88 258.769 455.838 258.561 454.866 258.159C453.893 257.756 453.01 257.166 452.266 256.421C451.521 255.677 450.931 254.794 450.528 253.821C450.126 252.849 449.918 251.807 449.918 250.755C449.918 249.702 450.126 248.66 450.528 247.688C450.931 246.715 451.521 245.832 452.266 245.088C453.01 244.343 453.893 243.753 454.866 243.35C455.838 242.948 456.88 242.74 457.932 242.74H631.292C633.418 242.74 635.456 243.585 636.959 245.088C638.462 246.591 639.306 248.629 639.306 250.755C639.306 252.88 638.462 254.918 636.959 256.421C635.456 257.924 633.418 258.769 631.292 258.769V258.769Z" fill="#CCCCCC"/>
<path id="Vector_12" d="M426.881 291.547H297.535C296.517 291.546 295.54 291.141 294.819 290.42C294.099 289.7 293.694 288.723 293.693 287.704V186.757C293.694 185.738 294.099 184.761 294.819 184.041C295.54 183.321 296.517 182.915 297.535 182.914H426.881C427.9 182.915 428.877 183.321 429.597 184.041C430.318 184.761 430.723 185.738 430.724 186.757V287.704C430.723 288.723 430.318 289.7 429.597 290.42C428.877 291.141 427.9 291.546 426.881 291.547V291.547Z" fill="#8685EF"/>
</g>
</g>
</svg>
