<svg width="300" height="300" viewBox="0 0 300 300" fill="none" xmlns="http://www.w3.org/2000/svg">
<g id="Frame 1">
<g id="img0">
<path id="Vector" d="M123.006 4.4869C78.4063 11.3869 46.4063 37.4869 31.5063 79.1869C25.6063 95.7869 23.0063 109.287 21.5063 131.587C19.2063 167.587 24.8063 202.887 37.0063 228.387C44.6063 244.287 60.3063 263.987 73.0063 273.687C80.6063 279.487 94.2063 286.387 104.506 289.787C132.406 298.787 171.606 298.587 199.106 289.387C226.506 280.187 248.206 261.387 261.406 235.387C272.106 214.187 277.206 191.287 278.206 159.287C279.906 104.687 265.406 61.9869 235.406 33.2869C218.406 17.0869 196.806 7.4869 169.206 3.8869C158.506 2.4869 133.906 2.7869 123.006 4.4869ZM165.406 58.7869C173.606 61.2869 181.306 67.2869 184.806 73.6869C191.606 86.2869 195.506 112.587 195.506 146.887C195.506 214.187 183.406 240.187 151.006 242.587C134.306 243.887 119.506 235.987 113.106 222.587C110.306 216.587 107.206 202.787 105.406 188.387C103.706 175.287 103.706 128.487 105.406 115.387C109.706 80.7869 118.706 64.7869 137.206 58.8869C145.106 56.2869 157.506 56.2869 165.406 58.7869Z" fill="#8685EF"/>
</g>
</g>
</svg>
