<svg width="300" height="300" viewBox="0 0 300 300" fill="none" xmlns="http://www.w3.org/2000/svg">
<g id="Frame 1">
<g id="img5">
<path id="Vector" d="M69.5 9.2C68.8 11.3 40 156.4 40 157.7C40 158.6 41.6 159 44.6 159C48.7 159 49.1 159.2 48.8 161.2L48.5 163.5L76.5 163.8L104.6 164L107.7 159.6C111.6 154.1 119.3 148.9 128 145.9C133.3 144.1 136.8 143.6 147 143.6C171 143.4 184.7 149.8 192.2 164.4C201.6 182.9 199.2 208.6 186.7 224.3C176.8 236.5 156.9 242.9 134.5 240.8C116.3 239.2 105.6 232.9 102.9 222.1C101.9 218.3 101 216.6 99.4 216C98 215.4 97 213.9 96.6 211.6L95.9 208H63H30V210.9C30 217.7 33.2 229 37.7 238C41.8 246.1 43.9 249 52.5 257.5C66.9 272 74.8 277 94.3 283.9C111 289.8 122.9 291.5 147.5 291.4C167.6 291.4 170.6 291.2 182.4 288.7C221.8 280.3 250.6 259.1 263 229.4C274.7 201.2 271.3 166.1 254.5 142.5C248.2 133.6 234.5 120.2 226.1 114.6C206.3 101.4 181.5 95.2 153.5 96.3C138.2 96.9 129.4 98.7 116.3 104C112 105.8 107.9 107.5 107.1 107.8C106.3 108.1 105.9 107.9 106.3 107.3C106.6 106.8 108.7 96.9 111 85.4C113.3 73.9 115.3 63.7 115.6 62.8C116.1 61.1 120.6 61 186.3 60.8L256.5 60.5V38.5V16.5L254.3 16.2C252.4 15.9 252 15.2 252 11.9V8H161C89 8 69.8 8.3 69.5 9.2Z" fill="#8685EF"/>
</g>
</g>
</svg>
