<svg width="300" height="300" viewBox="0 0 300 300" fill="none" xmlns="http://www.w3.org/2000/svg">
<g id="Frame 1">
<g id="img6">
<path id="Vector" d="M136.001 6.63709C93.5012 11.9371 62.4012 33.6371 45.4012 69.9371C34.9012 92.2371 31.1012 114.337 31.0012 152.637C30.9012 198.737 36.9012 224.737 53.0012 247.237C58.4012 254.837 74.0012 269.837 81.7012 275.037C117.201 298.537 175.101 301.637 214.901 282.237C228.001 275.837 236.701 269.337 245.601 259.637C263.901 239.537 272.801 208.437 268.001 181.137C265.001 164.037 259.501 152.437 248.601 140.037C235.301 124.737 221.301 115.137 204.501 109.737C190.201 105.037 183.401 104.137 164.401 104.237C149.901 104.237 145.401 104.637 138.201 106.437C128.101 108.937 118.801 112.937 109.601 118.737L103.101 122.837L103.801 112.737C105.201 92.5371 110.701 78.1371 120.801 68.1371C130.601 58.4371 143.101 53.6371 159.001 53.6371C176.101 53.6371 186.501 57.6371 192.701 66.6371C194.801 69.6371 197.401 72.4371 198.401 72.8371C199.401 73.2371 200.801 74.4371 201.401 75.5371C202.401 77.5371 203.201 77.6371 232.901 77.6371C249.701 77.6371 263.401 77.3371 263.401 76.8371C263.301 74.0371 259.101 60.0371 256.901 55.3371C253.301 47.9371 241.001 33.8371 232.501 27.5371C220.201 18.4371 203.901 11.6371 185.401 8.03709C175.601 6.13709 146.601 5.33709 136.001 6.63709ZM176.201 147.137C197.201 152.137 207.401 165.837 207.401 189.037C207.401 204.637 202.501 216.637 192.401 225.937C181.701 235.837 168.501 240.237 152.401 239.337C132.101 238.137 118.601 229.937 112.501 215.037C108.901 206.437 108.301 189.437 111.301 179.837C116.201 163.537 129.401 151.237 146.201 147.237C153.801 145.337 168.401 145.337 176.201 147.137Z" fill="#8685EF"/>
</g>
</g>
</svg>
