<svg width="300" height="300" viewBox="0 0 300 300" fill="none" xmlns="http://www.w3.org/2000/svg">
<g id="Frame 1">
<g id="img7">
<path id="Vector" d="M28 37V61H32.1C35.7 61 36.2 61.2 35.7 63C35.2 65 35.8 65 113.2 65.2L191.3 65.5L180.5 77C168.8 89.4 150.1 111.6 140.4 124.5C114.3 159.1 96.8 196.2 86.5 238.5C83.3 251.8 78 278.5 78 281.6C78 282.4 79 283 80.3 283C84.8 283 87.2 284.2 86.7 286.1C86.2 287.9 87.5 288 118.1 288C135.6 288 150 287.9 150 287.7C150 287.6 150.7 281.6 151.5 274.5C160.2 200.3 189.8 144.2 256.9 74.8L272 59.2V40.1C272 21.7 271.9 21 270 21C268.5 21 267.9 20.1 267.4 17L266.7 13H147.4H28V37Z" fill="#8685EF"/>
</g>
</g>
</svg>
