<svg width="900" height="700" viewBox="0 0 900 700" fill="none" xmlns="http://www.w3.org/2000/svg">
<g id="about ">
<g id="Frame 1">
<g id="background">
<path id="Vector" d="M818.715 629.491H49.5232C42.9632 629.484 36.6718 626.707 32.0331 621.771C27.3929 616.832 24.7833 610.138 24.7759 603.158V111.328C24.7812 106.213 26.6928 101.309 30.0927 97.6922C33.4909 94.0753 38.0992 92.0398 42.9057 92.0341H825.019C829.909 92.0398 834.597 94.1096 838.055 97.7894C841.514 101.469 843.457 106.457 843.464 111.661V603.158C843.456 610.138 840.846 616.832 836.207 621.771C831.567 626.707 825.277 629.484 818.715 629.491Z" fill="#F2F2F2"/>
<path id="Vector_2" d="M73.5221 603.158H794.718C801.081 603.158 807.186 600.466 811.687 595.678C816.186 590.889 818.715 584.393 818.715 577.621V160.176C818.715 153.404 816.186 146.909 811.687 142.119C807.186 137.331 801.081 134.639 794.718 134.639H73.5221C67.1571 134.639 61.0527 137.331 56.5531 142.119C52.0519 146.909 49.5232 153.404 49.5232 160.176V577.621C49.5232 584.393 52.0519 590.889 56.5531 595.678C61.0527 600.466 67.1571 603.158 73.5221 603.158Z" fill="white"/>
<path id="Vector_3" d="M843.118 109.821H24.4286V96.4137C24.438 89.4086 27.0588 82.6933 31.7151 77.7423C36.3713 72.7898 42.6835 70.0057 49.2658 70H818.28C824.864 70.0057 831.176 72.7898 835.833 77.7423C840.489 82.6933 843.109 89.4086 843.118 96.4137V109.821Z" fill="#8685EF"/>
<path id="Vector_4" d="M69.5675 96.7866C73.1161 96.7866 75.9916 93.7268 75.9916 89.9499C75.9916 86.1745 73.1161 83.1133 69.5675 83.1133C66.019 83.1133 63.1434 86.1745 63.1434 89.9499C63.1434 93.7268 66.019 96.7866 69.5675 96.7866Z" fill="white"/>
<path id="Vector_5" d="M118.341 96.7866C121.887 96.7866 124.765 93.7268 124.765 89.9499C124.765 86.1745 121.887 83.1133 118.341 83.1133C114.792 83.1133 111.915 86.1745 111.915 89.9499C111.915 93.7268 114.792 96.7866 118.341 96.7866Z" fill="white"/>
<path id="Vector_6" d="M456.623 512.627H392.128C388.351 512.623 384.729 511.024 382.058 508.182C379.387 505.339 377.883 501.485 377.88 497.465V428.835C377.883 424.815 379.387 420.961 382.058 418.118C384.729 415.276 388.351 413.677 392.128 413.672H456.623C460.401 413.677 464.023 415.276 466.694 418.118C469.365 420.961 470.867 424.815 470.872 428.835V497.465C470.867 501.485 469.365 505.339 466.694 508.182C464.023 511.024 460.401 512.623 456.623 512.627ZM392.128 416.864C389.146 416.869 386.286 418.13 384.178 420.374C382.069 422.618 380.883 425.661 380.879 428.835V497.465C380.883 500.638 382.069 503.681 384.178 505.925C386.286 508.169 389.146 509.432 392.128 509.436H456.623C459.605 509.432 462.464 508.169 464.574 505.925C466.682 503.681 467.868 500.638 467.872 497.465V428.835C467.868 425.661 466.682 422.618 464.574 420.374C462.464 418.13 459.605 416.869 456.623 416.864H392.128Z" fill="#CCCCCC"/>
<path id="Vector_7" d="M443.874 493.474H404.877C403.685 493.473 402.541 492.969 401.697 492.07C400.854 491.173 400.379 489.956 400.378 488.686V437.613C400.379 436.344 400.854 435.127 401.697 434.229C402.541 433.332 403.685 432.826 404.877 432.824H433.135C434.159 432.826 435.153 433.199 435.953 433.882L446.692 443.064C447.218 443.512 447.642 444.079 447.933 444.726C448.225 445.372 448.376 446.079 448.374 446.796V488.686C448.372 489.956 447.898 491.173 447.054 492.07C446.211 492.969 445.067 493.473 443.874 493.474ZM404.877 436.017C404.479 436.017 404.099 436.186 403.818 436.486C403.536 436.784 403.378 437.19 403.378 437.613V488.686C403.378 489.11 403.536 489.516 403.818 489.814C404.099 490.113 404.479 490.282 404.877 490.283H443.874C444.271 490.282 444.653 490.113 444.934 489.814C445.216 489.516 445.374 489.11 445.374 488.686V446.796C445.374 446.558 445.324 446.322 445.227 446.106C445.131 445.891 444.989 445.702 444.813 445.552L434.073 436.369C433.806 436.141 433.475 436.017 433.133 436.017H404.877Z" fill="#CCCCCC"/>
<path id="Vector_8" d="M436.375 455.17H412.377C411.979 455.17 411.597 455.001 411.316 454.701C411.035 454.403 410.876 453.997 410.876 453.573C410.876 453.15 411.035 452.744 411.316 452.444C411.597 452.146 411.979 451.977 412.377 451.977H436.375C436.773 451.977 437.153 452.146 437.434 452.444C437.716 452.744 437.874 453.15 437.874 453.573C437.874 453.997 437.716 454.403 437.434 454.701C437.153 455.001 436.773 455.17 436.375 455.17Z" fill="#CCCCCC"/>
<path id="Vector_9" d="M436.375 464.746H412.377C411.979 464.746 411.597 464.578 411.316 464.278C411.035 463.979 410.876 463.574 410.876 463.149C410.876 462.727 411.035 462.321 411.316 462.021C411.597 461.722 411.979 461.554 412.377 461.554H436.375C436.773 461.554 437.153 461.722 437.434 462.021C437.716 462.321 437.874 462.727 437.874 463.149C437.874 463.574 437.716 463.979 437.434 464.278C437.153 464.578 436.773 464.746 436.375 464.746Z" fill="#CCCCCC"/>
<path id="Vector_10" d="M436.375 474.323H412.377C411.979 474.323 411.597 474.154 411.316 473.854C411.035 473.556 410.876 473.15 410.876 472.726C410.876 472.303 411.035 471.897 411.316 471.597C411.597 471.299 411.979 471.13 412.377 471.13H436.375C436.773 471.13 437.153 471.299 437.434 471.597C437.716 471.897 437.874 472.303 437.874 472.726C437.874 473.15 437.716 473.556 437.434 473.854C437.153 474.154 436.773 474.323 436.375 474.323Z" fill="#CCCCCC"/>
<path id="Vector_11" d="M609.61 512.627H545.114C541.337 512.623 537.715 511.024 535.044 508.182C532.373 505.339 530.871 501.485 530.866 497.465V428.835C530.871 424.815 532.373 420.961 535.044 418.118C537.715 415.276 541.337 413.677 545.114 413.672H609.61C613.387 413.677 617.009 415.276 619.68 418.118C622.351 420.961 623.855 424.815 623.858 428.835V497.465C623.855 501.485 622.351 505.339 619.68 508.182C617.009 511.024 613.387 512.623 609.61 512.627ZM545.114 416.864C542.133 416.869 539.274 418.13 537.164 420.374C535.055 422.618 533.869 425.661 533.866 428.835V497.465C533.869 500.638 535.055 503.681 537.164 505.925C539.274 508.169 542.133 509.432 545.114 509.436H609.61C612.592 509.432 615.452 508.169 617.56 505.925C619.669 503.681 620.855 500.638 620.859 497.465V428.835C620.855 425.661 619.669 422.618 617.56 420.374C615.452 418.13 612.592 416.869 609.61 416.864H545.114Z" fill="#CCCCCC"/>
<path id="Vector_12" d="M598.36 480.707H556.364C555.172 480.705 554.027 480.2 553.183 479.302C552.341 478.405 551.866 477.188 551.865 475.918V450.382C551.866 449.112 552.341 447.895 553.183 446.998C554.027 446.099 555.172 445.595 556.364 445.594H598.36C599.554 445.595 600.697 446.099 601.541 446.998C602.385 447.895 602.859 449.112 602.859 450.382V475.918C602.859 477.188 602.385 478.405 601.541 479.302C600.697 480.2 599.554 480.705 598.36 480.707ZM556.364 448.785C555.966 448.786 555.586 448.955 555.304 449.253C555.023 449.552 554.865 449.959 554.865 450.382V475.918C554.865 476.341 555.023 476.747 555.304 477.047C555.586 477.345 555.966 477.514 556.364 477.514H598.36C598.758 477.514 599.14 477.345 599.421 477.047C599.702 476.747 599.861 476.341 599.861 475.918V450.382C599.861 449.959 599.702 449.552 599.421 449.253C599.14 448.955 598.758 448.786 598.36 448.785H556.364Z" fill="#CCCCCC"/>
<path id="Vector_13" d="M577.363 467.36C576.519 467.362 575.694 467.112 574.978 466.638L552.569 451.735C552.232 451.51 551.994 451.153 551.904 450.74C551.815 450.327 551.884 449.895 552.095 449.536C552.306 449.178 552.641 448.923 553.028 448.828C553.415 448.732 553.823 448.805 554.16 449.028L576.568 463.931C576.806 464.088 577.081 464.172 577.363 464.172C577.644 464.172 577.919 464.088 578.157 463.931L600.566 449.028C600.903 448.805 601.309 448.732 601.696 448.828C602.084 448.923 602.42 449.178 602.629 449.536C602.84 449.895 602.909 450.327 602.819 450.74C602.731 451.153 602.492 451.51 602.156 451.735L579.748 466.638C579.032 467.112 578.205 467.362 577.363 467.36Z" fill="#CCCCCC"/>
<path id="Vector_14" d="M303.636 512.627H239.142C235.364 512.623 231.741 511.024 229.07 508.182C226.4 505.339 224.897 501.485 224.892 497.465V428.835C224.897 424.815 226.4 420.961 229.07 418.118C231.741 415.276 235.364 413.677 239.142 413.672H303.636C307.413 413.677 311.035 415.276 313.706 418.118C316.379 420.961 317.881 424.815 317.884 428.835V497.465C317.881 501.485 316.379 505.339 313.706 508.182C311.035 511.024 307.413 512.623 303.636 512.627ZM239.142 416.864C236.16 416.869 233.3 418.13 231.192 420.374C229.082 422.618 227.896 425.661 227.892 428.835V497.465C227.896 500.638 229.082 503.681 231.192 505.925C233.3 508.169 236.16 509.432 239.142 509.436H303.636C306.618 509.432 309.478 508.169 311.586 505.925C313.695 503.681 314.882 500.638 314.886 497.465V428.835C314.882 425.661 313.695 422.618 311.586 420.374C309.478 418.13 306.618 416.869 303.636 416.864H239.142Z" fill="#CCCCCC"/>
<path id="Vector_15" d="M292.388 480.707H250.39C249.198 480.705 248.053 480.2 247.21 479.302C246.367 478.405 245.892 477.188 245.891 475.918V450.382C245.892 449.112 246.367 447.895 247.21 446.998C248.053 446.099 249.198 445.595 250.39 445.594H292.388C293.58 445.595 294.723 446.099 295.567 446.998C296.411 447.895 296.886 449.112 296.887 450.382V475.918C296.886 477.188 296.411 478.405 295.567 479.302C294.723 480.2 293.58 480.705 292.388 480.707ZM250.39 448.785C249.992 448.786 249.612 448.955 249.331 449.253C249.049 449.552 248.891 449.959 248.891 450.382V475.918C248.891 476.341 249.049 476.747 249.331 477.047C249.612 477.345 249.992 477.514 250.39 477.514H292.388C292.784 477.514 293.166 477.345 293.447 477.047C293.729 476.747 293.887 476.341 293.887 475.918V450.382C293.887 449.959 293.729 449.552 293.447 449.253C293.166 448.955 292.784 448.786 292.388 448.785H250.39Z" fill="#CCCCCC"/>
<path id="Vector_16" d="M285.73 480.707H255.547C255.021 480.707 254.503 480.56 254.048 480.28C253.59 480 253.212 479.595 252.949 479.111C252.686 478.625 252.547 478.075 252.547 477.514C252.547 476.954 252.686 476.404 252.949 475.918L262.041 459.16C262.304 458.674 262.682 458.271 263.139 457.991C263.595 457.711 264.113 457.564 264.639 457.564C265.166 457.564 265.683 457.711 266.138 457.991C266.595 458.271 266.974 458.674 267.236 459.16L273.109 469.983L276.51 463.712C276.774 463.227 277.153 462.824 277.609 462.544C278.066 462.264 278.582 462.117 279.109 462.117C279.635 462.117 280.153 462.264 280.609 462.544C281.064 462.824 281.443 463.227 281.707 463.712L288.329 475.918C288.591 476.404 288.73 476.954 288.73 477.514C288.73 478.075 288.591 478.625 288.329 479.111C288.065 479.595 287.687 479.998 287.231 480.28C286.774 480.56 286.258 480.707 285.73 480.707ZM285.73 477.514L279.108 465.309L274.408 473.973C274.277 474.216 274.087 474.417 273.859 474.557C273.632 474.697 273.373 474.771 273.109 474.771C272.845 474.771 272.586 474.697 272.359 474.557C272.131 474.417 271.942 474.216 271.809 473.973L264.639 460.755L255.547 477.514H285.73Z" fill="#CCCCCC"/>
<path id="Vector_17" d="M287.886 458.361C289.544 458.361 290.887 456.933 290.887 455.169C290.887 453.406 289.544 451.977 287.886 451.977C286.23 451.977 284.888 453.406 284.888 455.169C284.888 456.933 286.23 458.361 287.886 458.361Z" fill="#CCCCCC"/>
<path id="Vector_18" d="M93.9533 96.7866C97.5018 96.7866 100.379 93.7268 100.379 89.9499C100.379 86.1745 97.5018 83.1133 93.9533 83.1133C90.4064 83.1133 87.5292 86.1745 87.5292 89.9499C87.5292 93.7268 90.4064 96.7866 93.9533 96.7866Z" fill="white"/>
</g>
<g id="img">
<path id="Vector_19" d="M850.073 332.902H394.112C387.552 332.893 381.261 330.116 376.622 325.18C371.982 320.243 369.373 313.549 369.365 306.567V202.823C369.373 195.842 371.982 189.148 376.622 184.212C381.261 179.273 387.552 176.496 394.112 176.489H850.073C856.635 176.496 862.925 179.273 867.565 184.212C872.203 189.148 874.814 195.842 874.822 202.823V306.567C874.814 313.549 872.203 320.243 867.565 325.18C862.925 330.116 856.635 332.893 850.073 332.902Z" fill="white"/>
<path id="Vector_20" d="M850.073 333.7H394.112C387.352 333.692 380.871 330.831 376.091 325.744C371.31 320.657 368.622 313.76 368.614 306.567V202.824C368.622 195.631 371.31 188.734 376.091 183.647C380.871 178.56 387.352 175.699 394.112 175.691H850.073C856.833 175.699 863.315 178.56 868.094 183.647C872.875 188.734 875.564 195.631 875.571 202.824V306.567C875.564 313.76 872.875 320.657 868.094 325.744C863.315 330.831 856.833 333.692 850.073 333.7ZM394.112 178.883C388.148 178.89 382.429 181.415 378.211 185.903C373.994 190.391 371.62 196.476 371.614 202.824V306.567C371.62 312.915 373.994 319 378.211 323.488C382.429 327.977 388.148 330.501 394.112 330.508H850.073C856.039 330.501 861.756 327.977 865.974 323.488C870.193 319 872.565 312.915 872.571 306.567V202.824C872.565 196.476 870.193 190.391 865.974 185.903C861.756 181.415 856.039 178.89 850.073 178.883H394.112Z" fill="#3F3D56"/>
<path id="Vector_21" d="M794.577 307.365H449.608C443.046 307.357 436.757 304.58 432.116 299.643C427.478 294.706 424.867 288.012 424.859 281.03V226.764C424.867 219.783 427.478 213.089 432.116 208.151C436.757 203.214 443.046 200.437 449.608 200.43H794.577C801.139 200.437 807.43 203.214 812.069 208.151C816.709 213.089 819.318 219.783 819.326 226.764V281.03C819.318 288.012 816.709 294.706 812.069 299.643C807.43 304.58 801.139 307.357 794.577 307.365Z" fill="#F2F2F2"/>
<path id="Vector_22" d="M523.844 278.116C540.19 278.116 553.439 264.016 553.439 246.623C553.439 229.23 540.19 215.129 523.844 215.129C507.498 215.129 494.247 229.23 494.247 246.623C494.247 264.016 507.498 278.116 523.844 278.116Z" fill="#FF6584"/>
<path id="Vector_23" d="M773.141 304.187L731.365 266.904L690.311 230.264C689.228 229.297 687.858 228.768 686.445 228.771C685.03 228.774 683.662 229.308 682.583 230.28L641.661 267.088L631.666 276.079L616.595 262.629L570.793 221.752C569.709 220.785 568.341 220.256 566.927 220.259C565.512 220.262 564.145 220.796 563.065 221.767L517.412 262.831L471.041 304.543C470.806 304.753 470.637 305.037 470.559 305.353C470.48 305.67 470.495 306.004 470.6 306.311C470.707 306.618 470.899 306.884 471.152 307.071C471.404 307.258 471.705 307.358 472.012 307.357L567.083 307.162L597.177 307.101L596.883 307.365L686.587 307.181L772.18 307.005C772.487 307.005 772.787 306.904 773.038 306.717C773.291 306.528 773.483 306.262 773.586 305.954C773.692 305.647 773.705 305.311 773.625 304.995C773.545 304.68 773.375 304.397 773.141 304.187Z" fill="#3F3D56"/>
<path id="Vector_24" d="M146.9 370.409H82.4046C78.6275 370.405 75.0055 368.806 72.3345 365.964C69.6635 363.121 68.161 359.267 68.1562 355.247V286.617C68.161 282.597 69.6635 278.743 72.3345 275.9C75.0055 273.058 78.6275 271.459 82.4046 271.454H146.9C150.677 271.459 154.299 273.058 156.97 275.9C159.641 278.743 161.143 282.597 161.148 286.617V355.247C161.143 359.267 159.641 363.121 156.97 365.964C154.299 368.806 150.677 370.405 146.9 370.409Z" fill="white"/>
<path id="Vector_25" d="M146.9 370.409H82.4046C78.6275 370.405 75.0055 368.806 72.3345 365.964C69.6635 363.121 68.161 359.267 68.1562 355.247V286.617C68.161 282.597 69.6635 278.743 72.3345 275.9C75.0055 273.058 78.6275 271.459 82.4046 271.454H146.9C150.677 271.459 154.299 273.058 156.97 275.9C159.641 278.743 161.143 282.597 161.148 286.617V355.247C161.143 359.267 159.641 363.121 156.97 365.964C154.299 368.806 150.677 370.405 146.9 370.409ZM82.4046 274.646C79.4219 274.649 76.5639 275.912 74.454 278.156C72.3457 280.4 71.1597 283.443 71.1565 286.617V355.247C71.1597 358.42 72.3457 361.463 74.454 363.707C76.5639 365.951 79.4219 367.214 82.4046 367.217H146.9C149.883 367.214 152.741 365.951 154.85 363.707C156.959 361.463 158.145 358.42 158.148 355.247V286.617C158.145 283.443 156.959 280.4 154.85 278.156C152.741 275.912 149.883 274.649 146.9 274.646H82.4046Z" fill="#3F3D56"/>
<path id="Vector_26" d="M135.65 342.478H93.6544C92.4604 342.477 91.3175 341.973 90.4735 341.074C89.6295 340.177 89.1564 338.96 89.1548 337.69V304.173C89.1564 302.904 89.6295 301.687 90.4735 300.789C91.3175 299.891 92.4604 299.386 93.6544 299.384H105.476C106.245 299.382 107.003 299.59 107.674 299.989C108.346 300.389 108.908 300.964 109.309 301.663L112.605 307.365H135.65C136.844 307.367 137.987 307.871 138.831 308.769C139.675 309.666 140.148 310.884 140.15 312.153V337.69C140.148 338.96 139.675 340.177 138.831 341.074C137.987 341.973 136.844 342.477 135.65 342.478Z" fill="#8685EF"/>
</g>
</g>
</g>
</svg>
