<svg width="700" height="700" viewBox="0 0 700 700" fill="none" xmlns="http://www.w3.org/2000/svg">
<g id="Frame 1">
<g id="admin">
<path id="Vector" d="M369.486 451.06C408.632 451.06 440.366 417.111 440.366 375.232C440.366 333.353 408.632 299.403 369.486 299.403C330.341 299.403 298.607 333.353 298.607 375.232C298.607 417.111 330.341 451.06 369.486 451.06Z" fill="#A0616A" fill-opacity="0.54"/>
<path id="Vector_2" d="M347.041 314.569C347.041 314.569 380.118 324.048 397.248 327.839C414.377 331.63 412.605 320.888 412.605 320.888C412.605 320.888 435.05 324.047 433.869 321.52C432.687 318.992 443.319 305.722 430.915 290.557C418.511 275.391 422.055 264.017 422.055 264.017H411.423L408.47 259.593H391.932C391.932 259.593 373.647 242.44 341.16 247.495C308.674 252.55 270.255 265.912 266.711 286.765C266.23 289.594 265.597 292.736 264.863 296.055C255.979 336.177 274.854 373.717 294.431 409.234C299.242 417.963 322.514 436.997 321.918 423.938C321.323 410.879 300.97 381.551 315.145 379.655C329.321 377.759 353.538 339.213 347.041 314.569Z" fill="#2F2E41"/>
<path id="Vector_3" d="M329.278 620.371C315.595 619.2 302.026 616.815 288.712 613.241L289.458 598.119L295.664 477.884L295.721 476.962H420.577L440.171 587.669L442.814 602.606C437.643 604.758 432.414 606.787 427.072 608.569C427.013 608.569 427.013 608.631 426.957 608.631C419.544 611.089 412.017 613.241 404.431 615.023C394.344 617.351 384.137 619.034 373.864 620.064C365.922 620.907 357.945 621.317 349.963 621.293C343.067 621.294 336.115 620.986 329.278 620.371Z" fill="#8685EF"/>
<path id="Vector_4" d="M249.008 598.98C243.837 596.583 238.837 594.001 233.897 591.296L231.77 590.128C230.334 589.329 228.841 588.468 227.404 587.608C225.449 586.44 223.553 585.272 221.715 584.104C219.933 582.998 218.096 581.83 216.314 580.662C216.199 580.601 216.143 580.539 216.028 580.539C209.822 576.298 203.731 571.933 197.871 567.2C196.894 566.401 195.917 565.602 194.939 564.803L193.906 547.1L195.399 546.116L295.664 477.884L297.042 476.962L297.157 476.901L311.291 476.962V533.269C319.279 545.624 324.68 571.503 328.013 605.373C328.473 610.229 328.874 615.208 329.278 620.371C315.595 619.2 302.026 616.815 288.712 613.241C287.276 612.934 285.896 612.565 284.459 612.134C276.086 609.79 267.838 606.958 259.753 603.652C257.281 602.668 254.869 601.623 252.456 600.578L252.226 600.455C251.19 599.963 250.043 599.472 249.008 598.98Z" fill="#2F2E41"/>
<path id="Vector_5" d="M227.404 587.608C225.449 586.44 223.552 585.273 221.715 584.104C219.933 582.998 218.096 581.83 216.314 580.662C216.199 580.601 216.143 580.539 216.028 580.539C209.822 576.298 203.731 571.933 197.87 567.2C196.894 566.401 195.917 565.602 194.939 564.803C194.481 564.373 194.021 564.004 193.502 563.573C189.827 560.562 186.264 557.427 182.816 554.107C182.645 553.984 182.529 553.8 182.355 553.677C185.837 550.813 189.741 548.59 193.906 547.1L197.985 548.391L227.06 557.734L227.231 570.335L227.404 587.608Z" fill="#2F2E41"/>
<path id="Vector_6" d="M472.233 587.792C470.508 588.776 468.785 589.76 467.062 590.681C466.658 590.927 466.316 591.112 465.971 591.296C463.671 592.526 461.432 593.755 459.134 594.923C459.075 594.984 458.96 594.984 458.96 595.046C458.845 595.107 458.674 595.169 458.559 595.23C453.388 597.874 448.159 600.332 442.814 602.607C437.643 604.758 432.414 606.787 427.072 608.569C427.013 608.569 427.013 608.631 426.957 608.631C419.544 611.089 412.017 613.241 404.431 615.023C404.346 609.974 404.966 604.94 406.271 600.086L406.327 599.226L411.271 513.659L404.661 476.962L423.624 473.95L527.91 534.006C527.91 534.006 516.418 546.3 469.245 572.486C465.074 574.802 471.198 582.506 472.233 587.792Z" fill="#2F2E41"/>
<path id="Vector_7" d="M372.602 605.311C365.13 606.049 357.547 606.418 349.963 606.418C342.607 606.418 335.31 606.111 328.013 605.373C328.473 610.229 328.874 615.208 329.278 620.372C336.115 620.987 343.067 621.294 349.963 621.294C357.945 621.318 365.922 620.908 373.864 620.064C384.138 619.035 394.345 617.351 404.431 615.024C404.346 609.974 404.966 604.94 406.271 600.086L406.327 599.226C395.236 602.114 383.965 604.148 372.602 605.311ZM589.734 260.342C577.592 223.029 557.988 188.999 532.29 160.624C506.592 132.249 475.418 110.212 440.941 96.0503C406.464 81.8888 369.514 75.9431 332.669 78.628C295.824 81.3129 259.969 92.5637 227.606 111.596C195.242 130.628 167.149 156.983 145.284 188.824C123.42 220.665 108.311 257.225 101.011 295.955C93.7102 334.684 94.3946 374.651 103.016 413.069C111.637 451.487 127.987 487.43 150.927 518.393C153.225 521.467 155.582 524.54 157.995 527.491C158.225 527.736 158.34 527.921 158.511 528.105C164.443 535.424 170.754 542.381 177.415 548.943C179.025 550.542 180.689 552.14 182.355 553.677C182.529 553.8 182.644 553.984 182.815 554.107C186.263 557.426 189.827 560.561 193.502 563.573C194.021 564.004 194.481 564.372 194.938 564.803C195.918 565.602 196.895 566.401 197.87 567.2C203.731 571.933 209.822 576.298 216.028 580.539C216.143 580.539 216.199 580.6 216.314 580.662C218.096 581.83 219.933 582.997 221.715 584.104C223.555 585.272 225.452 586.44 227.404 587.608C228.841 588.468 230.333 589.329 231.77 590.128L233.897 591.296C238.837 594.001 243.837 596.583 249.007 598.98C250.042 599.472 251.19 599.963 252.225 600.455L252.455 600.578C254.868 601.623 257.281 602.668 259.753 603.652C267.837 606.958 276.085 609.79 284.458 612.135C285.895 612.565 287.275 612.934 288.712 613.241C302.026 616.815 315.594 619.2 329.278 620.371C336.115 620.986 343.067 621.294 349.963 621.294C357.944 621.318 365.922 620.907 373.864 620.064C384.137 619.034 394.344 617.351 404.431 615.024C412.017 613.241 419.544 611.089 426.957 608.631C427.013 608.631 427.013 608.569 427.072 608.569C432.414 606.787 437.643 604.758 442.814 602.607C448.158 600.332 453.388 597.874 458.559 595.231C458.674 595.169 458.845 595.108 458.96 595.046C458.96 594.984 459.075 594.984 459.134 594.923C461.431 593.755 463.671 592.526 465.971 591.296C466.316 591.112 466.658 590.928 467.062 590.682C468.785 589.76 470.508 588.776 472.233 587.793C472.348 587.731 472.404 587.67 472.519 587.608C477.059 584.904 481.542 582.076 485.966 579.064C487.173 578.265 488.379 577.466 489.586 576.544C491.367 575.376 493.09 574.085 494.756 572.794C496.998 571.134 499.237 569.413 501.422 567.63C502.148 567.132 502.839 566.577 503.49 565.971C508.835 561.668 514.005 557.119 518.946 552.324C556.418 516.604 583.145 469.796 595.745 417.822C608.345 365.848 606.254 311.044 589.734 260.342L589.734 260.342ZM514.637 536.465C508.417 542.726 501.897 548.635 495.102 554.169C493.609 555.398 492.055 556.627 490.506 557.734C489.011 558.963 487.518 560.131 485.967 561.237C484.645 562.221 483.324 563.205 481.944 564.127C481.829 564.249 481.657 564.311 481.542 564.434C480.563 565.172 479.531 565.848 478.555 566.524C475.508 568.552 472.349 570.581 469.246 572.487C468.499 572.917 467.809 573.408 467.063 573.839C466.659 574.085 466.258 574.331 465.798 574.576C464.075 575.622 462.349 576.544 460.627 577.527C460.397 577.711 460.111 577.773 459.88 577.957C459.794 577.972 459.713 578.015 459.65 578.08C458.444 578.757 457.238 579.371 456.031 579.986C454.996 580.539 454.02 581.092 452.985 581.584C448.79 583.736 444.481 585.764 440.172 587.669C435.632 589.636 431.036 591.419 426.382 593.079C425.232 593.509 424.025 594.001 422.819 594.37C417.359 596.214 411.902 597.873 406.328 599.226C395.236 602.114 383.965 604.147 372.602 605.311C365.131 606.049 357.547 606.418 349.964 606.418C342.607 606.418 335.31 606.11 328.013 605.373C314.996 604.099 302.101 601.673 289.459 598.119C288.999 597.996 288.482 597.873 288.022 597.75C277.652 594.858 267.493 591.16 257.627 586.686C257.11 586.44 256.535 586.256 256.075 586.01C255.5 585.764 254.984 585.579 254.523 585.333C253.948 585.088 253.432 584.842 252.916 584.596C248.606 582.568 244.412 580.354 240.218 578.08L238.262 576.974C234.528 574.884 230.85 572.732 227.231 570.335C225.968 569.597 224.647 568.737 223.382 567.876C221.945 566.954 220.509 565.971 219.128 564.987C218.786 564.741 218.442 564.495 218.096 564.249C214.878 561.913 211.604 559.577 208.501 557.058C206.318 555.336 204.191 553.677 202.065 551.894C200.684 550.788 199.307 549.62 197.986 548.391C197.124 547.714 196.263 546.915 195.399 546.116C194.251 545.071 193.101 544.026 191.954 542.919C190.172 541.383 188.505 539.661 186.895 538.063C180.425 531.685 174.306 524.912 168.566 517.778C166.614 515.442 164.773 513.106 162.994 510.648C162.58 510.163 162.195 509.65 161.844 509.111C132.917 470.044 115.243 422.816 110.979 373.186C106.715 323.557 116.044 273.673 137.829 229.619C159.614 185.566 192.912 149.247 233.662 125.095C274.412 100.942 320.852 89.9998 367.316 93.6025C413.78 97.2051 458.26 115.197 495.329 145.383C532.398 175.57 560.453 216.645 576.072 263.599C591.692 310.553 594.2 361.355 583.291 409.808C572.382 458.26 548.527 502.269 514.637 536.465L514.637 536.465Z" fill="#3F3D56"/>
</g>
</g>
</svg>
