<svg width="1297" height="537" viewBox="0 0 1297 537" fill="none" xmlns="http://www.w3.org/2000/svg">
<g id="Frame 1">
<g id="book_img">
<g id="center_bubble">
<path id="Vector_7" opacity="0.3" d="M671.328 411.377C755.001 411.377 822.831 339.149 822.831 250.049C822.831 160.949 755.001 88.7182 671.328 88.7182C587.656 88.7182 519.825 160.949 519.825 250.049C519.825 339.149 587.656 411.377 671.328 411.377Z" fill="#8685EF"/>
</g>
<g id="lightbubble">
<path id="Vector_3" d="M187.153 32.5162C184.322 32.5162 181.555 31.5626 179.2 29.7769C176.847 27.9892 175.012 25.4503 173.93 22.4802C172.845 19.5081 172.562 16.2404 173.114 13.0871C173.667 9.93284 175.03 7.03594 177.032 4.7618C179.034 2.48878 181.584 0.940355 184.362 0.312626C187.137 -0.315103 190.015 0.00701115 192.631 1.23817C195.246 2.46832 197.481 4.55225 199.055 7.22605C200.627 9.89984 201.467 13.0435 201.467 16.2586C201.462 20.569 199.953 24.7022 197.27 27.7493C194.586 30.7973 190.948 32.5111 187.153 32.5162ZM187.153 2.70996C184.795 2.70996 182.488 3.50452 180.526 4.99372C178.565 6.482 177.037 8.59792 176.134 11.0736C175.23 13.5497 174.994 16.2738 175.454 18.9007C175.915 21.5307 177.051 23.943 178.719 25.8391C180.386 27.7331 182.512 29.0238 184.826 29.5461C187.14 30.0695 189.538 29.8012 191.718 28.7747C193.898 27.7503 195.76 26.0132 197.071 23.7861C198.382 21.557 199.081 18.9382 199.081 16.2586C199.077 12.667 197.819 9.22271 195.583 6.68274C193.347 4.14288 190.316 2.71381 187.153 2.70996Z" fill="#3F3D56"/>
<path id="Vector_3_2" d="M1282.88 283.29C1280.08 283.29 1277.35 282.323 1275.03 280.511C1272.71 278.698 1270.9 276.123 1269.83 273.109C1268.76 270.094 1268.48 266.778 1269.03 263.58C1269.57 260.38 1270.92 257.442 1272.89 255.135C1274.87 252.829 1277.38 251.257 1280.12 250.622C1282.86 249.985 1285.7 250.311 1288.28 251.559C1290.86 252.808 1293.06 254.922 1294.62 257.634C1296.17 260.346 1297 263.536 1297 266.797C1297 271.169 1295.5 275.361 1292.86 278.454C1290.21 281.546 1286.62 283.285 1282.88 283.29ZM1282.88 253.052C1280.55 253.052 1278.27 253.859 1276.34 255.369C1274.4 256.879 1272.9 259.026 1272 261.537C1271.12 264.049 1270.88 266.813 1271.33 269.479C1271.79 272.144 1272.91 274.593 1274.55 276.515C1276.2 278.438 1278.3 279.747 1280.58 280.276C1282.87 280.809 1285.23 280.535 1287.38 279.495C1289.53 278.455 1291.37 276.693 1292.66 274.433C1293.96 272.173 1294.65 269.515 1294.65 266.797C1294.65 263.153 1293.4 259.66 1291.2 257.082C1288.99 254.506 1285.99 253.057 1282.88 253.052Z" fill="#3F3D56"/>
</g>
<g id="square">
<path id="Vector_4_2" d="M899.54 117.99H878.03V95.0775H899.54V117.99ZM879.69 116.226H897.89V96.8399H879.69V116.226Z" fill="#3F3D56"/>
<path id="Vector_5" d="M387.676 130.578L373 113.822L388.734 98.1934L403.412 114.948L387.676 130.578ZM375.34 113.909L387.758 128.086L401.072 114.862L388.654 100.685L375.34 113.909Z" fill="#3F3D56"/>
<path id="Vector_4_3" d="M1082.19 426.503H1060.68V403.591H1082.19V426.503ZM1062.34 424.741H1080.55V405.354H1062.34V424.741Z" fill="#3F3D56"/>
<path id="Vector_5_2" d="M14.676 260.328L0 243.572L15.734 227.943L30.412 244.699L14.676 260.328ZM2.34 243.659L14.758 257.835L28.072 244.612L15.653 230.435L2.34 243.659Z" fill="#3F3D56"/>
</g>
<g id="background">
<path id="Vector_6" d="M910.34 536.129C886.77 532.202 864.104 528.859 842.355 526.104L850.731 508.265C847.823 507.232 835.224 517.553 835.224 517.553L845.886 465.95C831.348 468.013 824.563 520.648 824.563 520.648L808.087 503.103L816.197 522.968C749.633 515.519 692.192 513.196 643.907 513.728L651.077 498.46C648.17 497.427 635.57 507.749 635.57 507.749L646.231 456.144C631.694 458.209 624.908 510.844 624.908 510.844L608.433 493.299L617.023 514.339C583.948 515.362 550.945 518.191 518.142 522.818C525.298 499.084 550.281 476.27 550.281 476.27C531.071 482.634 521.077 493.001 515.904 502.613C514.858 453.855 521.902 405.282 536.712 359.131C536.712 359.131 497.944 452.017 503.76 513.94L504.497 524.939C470.77 530.543 453.846 536.129 453.846 536.129H910.34Z" fill="#3F3D56"/>
</g>
<g id="book">
<path id="Vector_8" opacity="0.1" d="M609.111 44.8055L508.235 175.137L657.529 362.761L757.059 238.156L609.111 44.8055Z" fill="black"/>
<path id="Vector_9" d="M609.111 44.8055L508.235 175.137L657.529 362.761L757.059 238.156L609.111 44.8055Z" fill="#8685EF"/>
<path id="Vector_10" d="M512.271 176.57C514.502 172.294 517.269 168.359 520.496 164.877L613.145 64.8562C613.145 64.8562 645.425 59.1276 652.15 76.3145L533.791 179.435L512.271 176.57Z" fill="white"/>
<path id="Vector_11" d="M626.315 63.437L519.886 167.449L520.795 168.504L627.224 64.4898L626.315 63.437Z" fill="#3F3D56"/>
<path id="Vector_12" d="M635.181 64.3288L523.949 168.895L524.839 169.969L636.071 65.4018L635.181 64.3288Z" fill="#3F3D56"/>
<path id="Vector_13" d="M507.563 174.423L644.752 397.85C644.752 397.85 658.203 407.876 671.652 402.147L812.204 301.175L662.91 60.559L528.411 172.274L507.563 174.423Z" fill="#8685EF"/>
<path id="Vector_14" d="M662.459 98.5679L660.671 99.893L777.685 278.921L779.474 277.596L662.459 98.5679Z" fill="#3F3D56" fill-opacity="0.25"/>
<path id="Vector_15" d="M642.139 66.4121L526.67 168.904L527.531 170.004L643.001 67.5125L642.139 66.4121Z" fill="#3F3D56"/>
<path id="Vector_16" d="M775.232 301.657L683.794 373.298L685.086 375.167L776.524 303.528L775.232 301.657Z" fill="#3F3D56" fill-opacity="0.25"/>
<path id="Vector_17" d="M558.91 185.956L557.091 187.236L670.071 369.13L671.889 367.849L558.91 185.956Z" fill="#3F3D56" fill-opacity="0.25"/>
<path id="Vector_18" d="M646.137 95.4277L560.051 161.299L561.323 163.184L647.409 97.3116L646.137 95.4277Z" fill="#3F3D56" fill-opacity="0.25"/>
</g>
<g id="darkbubble">
<path id="Ellipse 1" d="M186.522 410.219C186.522 423.347 176.405 433.989 163.926 433.989C151.446 433.989 141.33 423.347 141.33 410.219C141.33 397.093 151.446 386.45 163.926 386.45C176.405 386.45 186.522 397.093 186.522 410.219Z" fill="#3F3D56"/>
<path id="Ellipse 2" d="M1200.97 63.0617C1213.45 63.0617 1223.57 52.4199 1223.57 39.2925C1223.57 26.1652 1213.45 15.5234 1200.97 15.5234C1188.49 15.5234 1178.37 26.1652 1178.37 39.2925C1178.37 52.4199 1188.49 63.0617 1200.97 63.0617Z" fill="#3F3D56"/>
</g>
</g>
</g>
</svg>
