<svg width="300" height="300" viewBox="0 0 300 300" fill="none" xmlns="http://www.w3.org/2000/svg">
<g id="Frame 1">
<g id="img2">
<path id="Vector" d="M127 10.2394C125.6 10.4394 121.1 11.1394 117 11.7394C66.3 19.0394 36 50.8394 35.6 97.1394L35.5 109.139L39.2 109.439C42 109.639 43 110.239 43.2 111.739C43.4 112.839 43.8 113.739 44.3 113.639C44.7 113.639 58.5 113.639 75 113.639H105V104.839C105 95.3394 106.7 87.0394 110.1 80.4394C113.2 74.3394 121.5 66.0394 127.4 63.1394C142.1 55.9394 164.1 55.9394 179.3 63.1394C185.9 66.3394 189.2 69.8394 192.9 77.6394C195.3 82.7394 195.5 84.1394 195.5 97.1394C195.5 110.839 195.4 111.239 192.3 117.939C184.7 134.039 167.9 146.739 113 178.039C100.6 185.139 86.6 193.539 81.9 196.839C50.8 218.039 37.1 238.739 32.1 272.339C31.5 276.239 31 280.939 31 282.539C31 285.539 31.2 285.639 35.4 285.639C39.5 285.639 39.7 285.739 39.2 288.139L38.8 290.639H152.9H267V268.139C267 246.339 266.9 245.639 265 245.639C263.5 245.639 262.9 244.739 262.4 241.639L261.7 237.639H193.7H125.6L131 232.139C139.1 223.939 148.6 217.439 183.6 196.539C223.1 172.839 232.7 166.139 246 152.739C260.9 137.739 266.4 126.639 267.8 108.639C269.3 90.5394 265.7 72.9394 257.9 60.1394C253.8 53.3394 241.1 39.4394 233.9 33.9394C221.7 24.5394 204.5 17.1394 185 12.9394C175.2 10.8394 170.3 10.4394 151.5 10.1394C139.4 9.93937 128.4 9.93937 127 10.2394Z" fill="#8685EF"/>
</g>
</g>
</svg>
