<svg width="300" height="300" viewBox="0 0 300 300" fill="none" xmlns="http://www.w3.org/2000/svg">
<g id="Frame 1">
<g id="img3">
<path id="Vector" d="M125 5.98521C92.9 9.68521 66 21.9852 51.6 39.4852C46 46.2852 40.8 56.6852 38.5 65.3852C36.9 71.7852 34.7 93.5852 35.6 95.0852C35.9 95.4852 37.9 95.8852 40.1 95.8852C43.7 95.8852 44.1 96.0852 43.8 98.0852L43.5 100.385L73.1 100.685L102.7 100.885L103.3 92.6852C104.8 71.8852 111.9 61.9852 129.6 55.8852C145.7 50.2852 171.3 53.2852 179.3 61.6852C185.4 68.0852 188.2 80.5852 186 91.3852C181.7 112.285 165.7 122.285 134.5 123.785L121.5 124.385L121.2 142.085L121 159.885H123.2C127.7 159.885 130.2 161.085 129.7 162.885C129.3 164.385 130.7 164.685 143.4 165.185C172.6 166.585 187.9 173.385 194.5 188.085C198.3 196.485 198.5 208.385 195.1 217.185C192.3 224.385 183.7 233.485 176.1 237.285C154.5 248.285 119.2 244.785 108.9 230.585C106.1 226.685 102 215.585 102 211.785C102 210.585 101.3 209.885 100.1 209.885C98 209.885 97 207.985 97 204.285V201.885H64C36.1 201.885 31 202.085 31 203.285C31 212.485 35.2 229.285 39.7 238.285C45.5 249.985 59.6 265.685 71.5 273.885C83.3 281.985 101 288.685 119.6 291.985C133.9 294.485 163.2 295.085 177.5 292.985C226.7 285.985 258.3 262.885 267.6 227.385C269.8 218.785 270.1 199.885 268.1 191.885C265.8 182.285 260.6 172.885 253.1 164.785C244.6 155.585 238.2 150.485 226.6 144.085L217.7 139.085L221.1 137.385C227.9 133.885 238.9 125.585 244.2 120.085C254.6 109.085 258.4 99.4852 258.4 83.3852C258.4 65.2852 253.6 53.2852 241 39.5852C225.5 22.9852 208.8 13.8852 184.3 8.78521C166.4 5.08521 143 3.98521 125 5.98521Z" fill="#8685EF"/>
</g>
</g>
</svg>
