<svg width="300" height="300" viewBox="0 0 300 300" fill="none" xmlns="http://www.w3.org/2000/svg">
<g id="Frame 1">
<g id="img4">
<path id="Vector" d="M151.1 14.8725C150.1 15.9725 122 53.1725 88.6 97.5725L28 178.272V200.872V223.372H32C35.6 223.372 36 223.572 36 225.872V228.372H100H164V255.872V283.372H168.6C172.7 283.372 173.1 283.572 172.8 285.572L172.5 287.872H204.5H236.5L236.7 258.372L236.9 228.872L254.5 228.572L272 228.372V207.872V187.372H269.7C267.7 187.372 267.3 186.872 267.2 183.772C267.1 181.772 266.9 179.972 266.8 179.772C266.6 179.672 259.8 179.372 251.7 179.172L237 178.872L236.7 99.8725L236.5 20.8725L234.3 21.1725C232.4 21.4725 232.1 20.9725 231.8 17.3725L231.5 13.2725L192.2 13.0725C154 12.8725 152.8 12.9725 151.1 14.8725ZM164 127.372V179.472L124.4 179.372C100.3 179.272 85 178.872 85.2 178.272C85.5 177.372 163.3 75.5725 163.8 75.4725C163.9 75.3725 164 98.7725 164 127.372Z" fill="#8685EF"/>
</g>
</g>
</svg>
