<svg width="300" height="300" viewBox="0 0 300 300" fill="none" xmlns="http://www.w3.org/2000/svg">
<g id="Frame 1">
<g id="img8">
<path id="Vector" d="M121.4 6.35C84.6 12.15 56 28.95 44.6 51.75C35.9 68.95 35.8 90.15 44.3 104.85C49.2 113.35 63.8 126.85 73.8 132.15C79.1 134.95 79.2 134.75 70.5 138.95C52.1 147.85 37.1 162.15 31.3 176.35C27.4 185.75 27 188.45 27 202.85C27.1 215.85 27.3 218.15 29.8 225.35C31.2 229.75 34.1 236.25 36.2 239.85C40.7 247.45 55.3 263.05 64.5 269.95C87.5 287.25 125.7 296.25 165.4 293.65C201.7 291.35 230.3 280.15 250.1 260.45C258 252.55 263 245.25 266.9 236.05C275.5 215.75 273.8 188.45 263 172.35C255.5 161.05 241.4 148.75 226.6 140.55L220.2 137.05L227.5 133.45C244.7 124.95 254.2 114.05 259 97.35C262.9 84.15 260 64.35 252.7 52.85C248.5 46.25 235.1 32.35 227.9 27.25C213.7 17.15 192 9.15 171 6.35C157.5 4.55 133 4.55 121.4 6.35ZM170.7 54.75C189.8 59.65 197.8 67.95 197.8 82.85C197.9 91.55 194.9 98.25 188.1 104.75C178 114.25 165.9 118.25 147.5 118.25C134.5 118.25 126.7 116.55 116.8 111.75C109 107.95 105.1 103.35 102.9 95.15C101.4 89.75 101.3 87.75 102.3 82.55C104.2 72.25 112.3 62.85 123.2 58.15C135.9 52.75 156.8 51.25 170.7 54.75ZM173.5 162.85C183.2 166.15 186.8 168.25 191.3 173.45C197.7 180.65 199.9 187.35 199.9 199.85C200 213.85 197.7 219.85 189.1 228.45C178.6 238.85 166.5 243.25 147.5 243.25C133.7 243.35 125.8 241.75 116.2 236.95C107.5 232.55 103.4 227.55 100.4 217.65C95.8 202.65 99.6 186.15 110.1 174.85C115.6 168.95 125.8 163.55 135.5 161.35C145 159.15 164.9 159.95 173.5 162.85Z" fill="#8685EF"/>
</g>
</g>
</svg>
