<svg width="701" height="700" viewBox="0 0 701 700" fill="none" xmlns="http://www.w3.org/2000/svg">
<g id="search_img">
<g id="backpage">
<path id="Vector" d="M517.996 531.555L165.004 628.477C153.03 631.749 140.328 629.823 129.684 623.123C119.04 616.421 111.323 605.492 108.227 592.732L1.4735 150.708C-1.5955 137.941 0.210433 124.397 6.49511 113.048C12.7798 101.699 23.03 93.4709 34.9969 90.1697L363.398 6.10352e-05L447.453 40.1218L551.519 471.017C554.588 483.784 552.782 497.328 546.498 508.677C540.212 520.027 529.962 528.255 517.996 531.555Z" fill="#F2F2F2"/>
<path id="Vector_2" d="M38.3438 104.028C29.8219 106.379 22.5225 112.238 18.047 120.32C13.5716 128.402 12.2856 138.047 14.471 147.139L121.225 589.164C123.43 598.25 128.925 606.033 136.505 610.805C144.084 615.577 153.131 616.948 161.657 614.618L514.648 517.696C523.171 515.346 530.469 509.486 534.945 501.404C539.421 493.322 540.707 483.678 538.521 474.585L436.067 50.367L362.198 15.1071L38.3438 104.028Z" fill="white"/>
<path id="Ellipse 44" d="M191.51 517.155C206.665 517.155 218.951 504.055 218.951 487.896C218.951 471.737 206.665 458.637 191.51 458.637C176.355 458.637 164.069 471.737 164.069 487.896C164.069 504.055 176.355 517.155 191.51 517.155Z" fill="#E6E6E6"/>
<path id="Vector_3" d="M400.727 343.307L187.286 401.89C181.117 403.576 174.573 402.583 169.09 399.13C163.607 395.678 159.632 390.048 158.039 383.474L113.309 198.2C111.728 191.623 112.659 184.645 115.897 178.798C119.135 172.952 124.416 168.714 130.581 167.014L344.022 108.431C350.191 106.746 356.735 107.738 362.218 111.191C367.701 114.644 371.675 120.274 373.27 126.848L417.999 312.123C419.58 318.7 418.649 325.677 415.411 331.524C412.172 337.37 406.891 341.608 400.727 343.307Z" fill="white"/>
<path id="Path 411" d="M333.194 170.729L225.473 200.294C224.532 200.574 223.524 200.462 222.657 199.982C221.789 199.501 221.125 198.688 220.799 197.706C220.646 197.192 220.594 196.651 220.645 196.115C220.696 195.58 220.848 195.06 221.093 194.59C221.339 194.119 221.671 193.706 222.071 193.378C222.469 193.048 222.928 192.81 223.417 192.676L333.07 162.579C337.499 164.971 336.334 169.865 333.193 170.729H333.194Z" fill="#F2F2F2"/>
<path id="Path 413" d="M209.82 238.303L176.944 247.327C175.87 247.621 174.731 247.447 173.778 246.846C172.822 246.245 172.13 245.265 171.853 244.121L161.867 202.755C161.592 201.61 161.753 200.396 162.317 199.378C162.88 198.361 163.8 197.623 164.873 197.327L197.749 188.304C198.823 188.01 199.961 188.183 200.915 188.784C201.87 189.386 202.562 190.365 202.839 191.51L212.826 232.876C213.102 234.021 212.939 235.235 212.376 236.252C211.812 237.27 210.892 238.008 209.82 238.303Z" fill="#E6E6E6"/>
<path id="Path 414" d="M347.704 232.212L183.301 277.335C182.36 277.615 181.353 277.504 180.486 277.023C179.618 276.542 178.954 275.729 178.628 274.747C178.475 274.233 178.423 273.692 178.474 273.156C178.525 272.62 178.677 272.102 178.922 271.63C179.166 271.16 179.499 270.747 179.898 270.419C180.298 270.089 180.755 269.849 181.244 269.715L347.581 224.062C352.01 226.454 350.845 231.35 347.704 232.212Z" fill="#F2F2F2"/>
<path id="Path 415" d="M352.57 252.364L188.167 297.488C187.225 297.768 186.219 297.656 185.351 297.176C184.484 296.695 183.818 295.882 183.492 294.898C183.341 294.386 183.289 293.844 183.34 293.309C183.389 292.773 183.542 292.254 183.787 291.783C184.032 291.313 184.364 290.9 184.764 290.57C185.163 290.242 185.621 290.002 186.11 289.868L352.447 244.215C356.876 246.607 355.711 251.503 352.57 252.364Z" fill="#F2F2F2"/>
<path id="Path 416" d="M357.431 272.504L193.029 317.627C192.088 317.907 191.08 317.796 190.213 317.315C189.345 316.835 188.681 316.021 188.355 315.039C188.202 314.525 188.15 313.984 188.201 313.448C188.252 312.913 188.404 312.394 188.649 311.924C188.895 311.452 189.227 311.039 189.627 310.711C190.025 310.381 190.484 310.142 190.973 310.008L357.308 264.354C361.738 266.746 360.572 271.642 357.431 272.504Z" fill="#F2F2F2"/>
<path id="Path 417" d="M362.296 292.655L197.894 337.778C196.952 338.059 195.946 337.947 195.079 337.467C194.21 336.986 193.546 336.173 193.219 335.189C193.068 334.677 193.016 334.136 193.067 333.6C193.116 333.063 193.269 332.545 193.515 332.074C193.759 331.604 194.091 331.191 194.491 330.861C194.891 330.533 195.348 330.293 195.837 330.159L362.173 284.505C366.603 286.898 365.438 291.793 362.296 292.655Z" fill="#F2F2F2"/>
<path id="Path 418" d="M367.159 312.796L202.756 357.919C201.815 358.199 200.808 358.088 199.94 357.607C199.073 357.127 198.409 356.313 198.082 355.331C197.93 354.818 197.877 354.277 197.928 353.74C197.979 353.206 198.132 352.686 198.376 352.216C198.622 351.744 198.954 351.332 199.354 351.003C199.752 350.673 200.211 350.434 200.7 350.3L367.036 304.646C371.465 307.04 370.299 311.934 367.159 312.796Z" fill="#F2F2F2"/>
<path id="Path 395" d="M193.534 498.152C192.937 498.318 192.305 498.271 191.735 498.019L191.699 498.004L184.224 494.625C183.876 494.469 183.561 494.24 183.297 493.953C183.033 493.667 182.825 493.328 182.684 492.956C182.543 492.584 182.471 492.185 182.475 491.784C182.478 491.382 182.555 490.984 182.704 490.615C182.851 490.246 183.065 489.91 183.334 489.629C183.602 489.348 183.922 489.125 184.271 488.976C184.62 488.826 184.994 488.75 185.371 488.755C185.747 488.759 186.12 488.842 186.466 489L191.311 491.198L197.658 475.275C197.805 474.906 198.019 474.572 198.287 474.292C198.556 474.01 198.873 473.788 199.222 473.638C199.571 473.489 199.944 473.413 200.322 473.416C200.697 473.421 201.069 473.502 201.415 473.66H201.417L201.378 473.764L201.418 473.66C202.116 473.978 202.668 474.578 202.952 475.33C203.236 476.081 203.229 476.922 202.933 477.668L195.464 496.388C195.292 496.819 195.028 497.203 194.693 497.509C194.358 497.813 193.963 498.033 193.536 498.147L193.534 498.152Z" fill="white"/>
<path id="Vector_4" d="M446.556 42.4019L391.925 57.4018C387.938 58.497 383.704 57.8578 380.158 55.6253C376.612 53.3926 374.043 49.7495 373.016 45.497L362.626 2.47483C362.58 2.28649 362.585 2.08827 362.64 1.90294C362.696 1.7176 362.799 1.55265 362.939 1.42699C363.078 1.30133 363.248 1.22004 363.427 1.19246C363.608 1.16488 363.793 1.19212 363.96 1.27105L446.707 40.4541C446.893 40.5413 447.047 40.6875 447.148 40.8723C447.251 41.0571 447.298 41.2715 447.281 41.4856C447.264 41.6996 447.186 41.903 447.056 42.0672C446.926 42.2314 446.751 42.3484 446.556 42.4019Z" fill="#F2F2F2"/>
<path id="Vector_5" d="M417.815 419.881L257.103 464.009C256.115 464.28 255.088 464.34 254.078 464.188C253.069 464.036 252.097 463.673 251.22 463.12C250.341 462.567 249.574 461.835 248.962 460.967C248.349 460.098 247.903 459.108 247.648 458.055C247.394 457.004 247.337 455.907 247.48 454.832C247.623 453.755 247.963 452.718 248.482 451.783C249 450.847 249.686 450.028 250.501 449.375C251.316 448.722 252.244 448.246 253.23 447.975L413.943 403.848C414.93 403.577 415.959 403.516 416.968 403.668C417.978 403.82 418.948 404.183 419.827 404.736C420.704 405.289 421.472 406.021 422.085 406.89C422.698 407.758 423.143 408.747 423.397 409.8C423.652 410.853 423.71 411.948 423.567 413.026C423.424 414.101 423.084 415.138 422.565 416.073C422.047 417.01 421.36 417.828 420.545 418.482C419.73 419.134 418.803 419.61 417.815 419.881Z" fill="#CCCCCC"/>
<path id="Vector_6" d="M455.365 438.422L263.637 491.066C261.644 491.612 259.527 491.293 257.754 490.177C255.981 489.061 254.697 487.239 254.183 485.112C253.67 482.987 253.969 480.73 255.016 478.839C256.063 476.949 257.771 475.58 259.766 475.031L451.493 422.389C453.486 421.844 455.601 422.165 457.371 423.281C459.143 424.397 460.427 426.219 460.94 428.343C461.453 430.468 461.155 432.723 460.109 434.613C459.064 436.503 457.357 437.874 455.365 438.422Z" fill="#CCCCCC"/>
<path id="Vector_7" d="M400.727 343.307L187.286 401.89C181.117 403.576 174.573 402.583 169.09 399.13C163.607 395.678 159.632 390.048 158.039 383.474L113.309 198.2C111.728 191.623 112.659 184.645 115.897 178.798C119.135 172.952 124.416 168.714 130.581 167.014L344.022 108.431C350.191 106.746 356.735 107.738 362.218 111.191C367.701 114.644 371.675 120.274 373.27 126.848L417.999 312.123C419.58 318.7 418.649 325.677 415.411 331.524C412.172 337.37 406.891 341.608 400.727 343.307ZM131.285 169.932C125.846 171.432 121.186 175.171 118.329 180.33C115.472 185.488 114.651 191.645 116.045 197.448L160.775 382.724C162.181 388.524 165.689 393.492 170.527 396.538C175.364 399.584 181.138 400.461 186.581 398.974L400.022 340.391C405.463 338.89 410.122 335.15 412.979 329.992C415.836 324.834 416.657 318.677 415.262 312.874L370.534 127.599C369.127 121.799 365.62 116.83 360.781 113.784C355.944 110.738 350.169 109.862 344.727 111.349L131.285 169.932Z" fill="#E6E6E6"/>
<path id="Path 412" d="M338.059 190.875L230.337 220.44C229.395 220.721 228.389 220.609 227.521 220.129C226.654 219.648 225.99 218.835 225.663 217.852C225.511 217.339 225.458 216.798 225.509 216.262C225.56 215.727 225.713 215.207 225.957 214.737C226.202 214.266 226.535 213.853 226.933 213.524C227.333 213.194 227.791 212.956 228.28 212.822L337.934 182.726C342.364 185.118 341.198 190.012 338.057 190.875H338.059Z" fill="#F2F2F2"/>
</g>
<g id="frontpage">
<path id="Vector_8" d="M653.389 700H288.881C276.521 699.985 264.67 694.743 255.93 685.422C247.189 676.104 242.272 663.468 242.258 650.288V193.843C242.272 180.662 247.189 168.028 255.93 158.707C264.67 149.388 276.521 144.145 288.881 144.131H627.996L700.012 205.334V650.288C699.998 663.468 695.081 676.104 686.341 685.422C677.6 694.743 665.75 699.985 653.389 700Z" fill="#E6E6E6"/>
<path id="Vector_9" d="M288.881 158.442C280.08 158.453 271.639 162.186 265.416 168.821C259.191 175.459 255.69 184.457 255.68 193.843V650.288C255.69 659.673 259.191 668.671 265.416 675.308C271.639 681.944 280.08 685.677 288.881 685.689H653.389C662.192 685.677 670.631 681.944 676.854 675.308C683.079 668.671 686.58 659.673 686.59 650.288V212.229L623.301 158.442H288.881Z" fill="white"/>
<path id="Vector_10" d="M582.492 291.164H416.537C414.478 291.164 412.503 290.292 411.048 288.738C409.591 287.187 408.773 285.081 408.773 282.884C408.773 280.69 409.591 278.584 411.048 277.032C412.503 275.479 414.478 274.607 416.537 274.607H582.492C584.552 274.607 586.526 275.479 587.982 277.032C589.439 278.584 590.257 280.69 590.257 282.884C590.257 285.081 589.439 287.187 587.982 288.738C586.526 290.292 584.552 291.164 582.492 291.164Z" fill="#8685EF"/>
<path id="Vector_11" d="M614.519 319.103H416.537C414.48 319.1 412.507 318.227 411.054 316.675C409.6 315.122 408.783 313.019 408.783 310.824C408.783 308.631 409.6 306.526 411.054 304.975C412.507 303.423 414.48 302.549 416.537 302.546H614.519C615.539 302.545 616.55 302.757 617.493 303.173C618.436 303.589 619.293 304.197 620.015 304.967C620.737 305.735 621.311 306.648 621.701 307.655C622.092 308.659 622.293 309.736 622.293 310.824C622.293 311.913 622.092 312.99 621.701 313.995C621.311 315 620.737 315.913 620.015 316.682C619.293 317.451 618.436 318.061 617.493 318.477C616.55 318.891 615.539 319.105 614.519 319.103Z" fill="#8685EF"/>
<path id="Vector_12" d="M582.494 399.813H416.544C414.485 399.813 412.51 400.683 411.054 402.237C409.598 403.788 408.78 405.894 408.78 408.091C408.78 410.285 409.598 412.391 411.054 413.943C412.51 415.496 414.485 416.368 416.544 416.368H582.494C584.552 416.368 586.527 415.496 587.982 413.943C589.439 412.391 590.257 410.285 590.257 408.091C590.257 405.894 589.439 403.788 587.982 402.237C586.527 400.683 584.552 399.813 582.494 399.813Z" fill="#CCCCCC"/>
<path id="Vector_13" d="M614.522 427.757H416.544C414.485 427.757 412.51 428.629 411.054 430.181C409.598 431.734 408.78 433.838 408.78 436.035C408.78 438.229 409.598 440.335 411.054 441.887C412.51 443.44 414.485 444.312 416.544 444.312H614.522C616.581 444.312 618.556 443.44 620.011 441.887C621.468 440.335 622.286 438.229 622.286 436.035C622.286 433.838 621.468 431.734 620.011 430.181C618.556 428.629 616.581 427.757 614.522 427.757Z" fill="#CCCCCC"/>
<path id="Vector_14" d="M582.492 541.583H416.537C414.478 541.583 412.503 540.711 411.048 539.16C409.591 537.606 408.773 535.501 408.773 533.306C408.773 531.109 409.591 529.003 411.048 527.452C412.503 525.899 414.478 525.026 416.537 525.026H582.492C584.552 525.026 586.526 525.899 587.982 527.452C589.439 529.003 590.257 531.109 590.257 533.306C590.257 535.501 589.439 537.606 587.982 539.16C586.526 540.711 584.552 541.583 582.492 541.583Z" fill="#CCCCCC"/>
<path id="Vector_15" d="M614.519 569.523H416.537C414.48 569.52 412.507 568.646 411.054 567.095C409.6 565.541 408.783 563.439 408.783 561.245C408.783 559.05 409.6 556.947 411.054 555.394C412.507 553.843 414.48 552.969 416.537 552.966H614.519C615.539 552.964 616.55 553.178 617.493 553.593C618.436 554.008 619.293 554.618 620.015 555.387C620.737 556.156 621.311 557.069 621.701 558.074C622.092 559.079 622.293 560.156 622.293 561.245C622.293 562.333 622.092 563.41 621.701 564.415C621.311 565.421 620.737 566.334 620.015 567.102C619.293 567.87 618.436 568.481 617.493 568.896C616.55 569.312 615.539 569.524 614.519 569.523Z" fill="#CCCCCC"/>
<path id="Ellipse 44_2" d="M347.43 326.114C362.585 326.114 374.871 313.014 374.871 296.855C374.871 280.696 362.585 267.596 347.43 267.596C332.273 267.596 319.987 280.696 319.987 296.855C319.987 313.014 332.273 326.114 347.43 326.114Z" fill="#8685EF"/>
<path id="Path 395_2" d="M344.71 308.016C344.093 308.018 343.493 307.805 342.998 307.409L342.967 307.385L336.519 302.124C336.218 301.882 335.966 301.576 335.779 301.23C335.589 300.882 335.466 300.498 335.415 300.1C335.366 299.701 335.391 299.295 335.487 298.908C335.585 298.52 335.753 298.155 335.982 297.837C336.212 297.518 336.498 297.25 336.824 297.049C337.15 296.849 337.511 296.718 337.885 296.667C338.258 296.614 338.638 296.641 339.003 296.745C339.366 296.849 339.708 297.03 340.006 297.275L344.183 300.69L354.053 286.959C354.282 286.641 354.568 286.373 354.894 286.173C355.219 285.973 355.579 285.842 355.952 285.789C356.325 285.738 356.704 285.763 357.067 285.867C357.431 285.971 357.772 286.15 358.07 286.394H358.071L358.009 286.485L358.073 286.394C358.675 286.889 359.069 287.616 359.168 288.419C359.268 289.222 359.065 290.034 358.603 290.677L346.992 306.821C346.724 307.194 346.379 307.493 345.983 307.701C345.588 307.908 345.153 308.015 344.713 308.013L344.71 308.016Z" fill="white"/>
<path id="Vector_16" d="M377.691 422.063C377.693 425.905 376.983 429.711 375.606 433.261C374.227 436.812 372.207 440.039 369.659 442.756C367.111 445.475 364.086 447.631 360.757 449.103C357.427 450.573 353.858 451.331 350.254 451.332C350.018 451.337 349.782 451.326 349.548 451.302C344.152 451.155 338.918 449.314 334.498 446.009C330.079 442.705 326.671 438.085 324.702 432.727C322.734 427.368 322.29 421.508 323.429 415.883C324.566 410.258 327.237 405.115 331.102 401.099C334.968 397.082 339.859 394.37 345.162 393.303C350.466 392.235 355.947 392.861 360.92 395.098C365.893 397.335 370.137 401.087 373.119 405.884C376.102 410.679 377.693 416.307 377.691 422.063Z" fill="#CCCCCC"/>
<path id="Ellipse 44_3" d="M347.43 576.534C362.585 576.534 374.871 563.434 374.871 547.275C374.871 531.115 362.585 518.016 347.43 518.016C332.273 518.016 319.987 531.115 319.987 547.275C319.987 563.434 332.273 576.534 347.43 576.534Z" fill="#CCCCCC"/>
<path id="Vector_17" d="M698.61 207.304H642.198C638.079 207.304 634.129 205.56 631.217 202.455C628.306 199.35 626.67 195.139 626.67 190.747V146.322C626.67 146.127 626.722 145.937 626.818 145.772C626.915 145.607 627.054 145.475 627.218 145.39C627.382 145.306 627.565 145.272 627.746 145.293C627.928 145.315 628.099 145.39 628.243 145.511L699.214 205.459C699.37 205.592 699.486 205.774 699.543 205.98C699.598 206.187 699.594 206.407 699.527 206.61C699.461 206.813 699.337 206.988 699.173 207.113C699.009 207.238 698.812 207.304 698.61 207.304Z" fill="#CCCCCC"/>
<path id="Vector_18" d="M377.691 422.063C377.693 425.905 376.983 429.711 375.606 433.261C374.227 436.812 372.207 440.039 369.659 442.756C367.111 445.475 364.086 447.631 360.757 449.103C357.427 450.573 353.858 451.331 350.254 451.332C350.018 451.337 349.782 451.326 349.548 451.302C346.003 441.873 344.635 431.674 345.564 421.564C346.49 411.454 349.683 401.732 354.874 393.215C361.257 394.381 367.048 397.916 371.223 403.195C375.4 408.473 377.69 415.156 377.691 422.063Z" fill="#CCCCCC"/>
<path id="Vector_19" d="M408.773 408.098C408.777 405.902 409.597 403.796 411.054 402.243C412.51 400.69 414.484 399.816 416.544 399.813H457.897C460.313 405.051 462.029 410.623 462.997 416.368H416.544C414.485 416.367 412.512 415.496 411.055 413.946C409.598 412.396 408.777 410.291 408.773 408.098Z" fill="#CCCCCC"/>
<path id="Vector_20" d="M463.958 427.757C463.961 433.347 463.267 438.915 461.895 444.312H416.544C414.485 444.312 412.51 443.44 411.054 441.887C409.598 440.335 408.78 438.229 408.78 436.035C408.78 433.838 409.598 431.734 411.054 430.181C412.51 428.629 414.485 427.757 416.544 427.757H463.958Z" fill="#CCCCCC"/>
</g>
<g id="search">
<path id="Vector_21" d="M479.613 336.769C466.7 325.14 450.898 317.767 434.131 315.548C417.363 313.329 400.353 316.36 385.169 324.27C369.986 332.181 357.284 344.63 348.61 360.104C339.935 375.577 335.663 393.409 336.31 411.427C336.958 429.446 342.499 446.873 352.26 461.593C362.022 476.31 375.579 487.685 391.287 494.329C406.993 500.973 424.172 502.603 440.73 499.018C457.29 495.434 472.515 486.79 484.554 474.14L591.465 570.413C593.091 571.881 595.198 572.599 597.321 572.409C599.443 572.219 601.408 571.138 602.783 569.402C604.159 567.666 604.832 565.418 604.654 563.152C604.476 560.887 603.463 558.79 601.835 557.322L601.824 557.312L494.913 461.038C507.333 442.015 512.648 418.727 509.818 395.741C506.988 372.753 496.216 351.722 479.613 336.769ZM472.72 451.768C464.392 462.301 453.324 469.964 440.915 473.784C428.505 477.604 415.313 477.411 403.008 473.231C390.7 469.051 379.832 461.068 371.776 450.296C363.72 439.523 358.837 426.442 357.748 412.709C356.657 398.975 359.408 385.204 365.651 373.139C371.894 361.072 381.349 351.253 392.821 344.923C404.293 338.592 417.267 336.034 430.101 337.572C442.935 339.11 455.054 344.676 464.926 353.564C471.478 359.466 476.88 366.688 480.819 374.817C484.758 382.947 487.156 391.824 487.88 400.943C488.605 410.061 487.638 419.244 485.037 427.965C482.436 436.684 478.251 444.773 472.72 451.768Z" fill="#3F3D56"/>
<path id="Vector_22" opacity="0.3" d="M381.569 459.871C369.173 448.574 361.163 432.656 359.131 415.276C357.101 397.898 361.195 380.329 370.605 366.06C369.368 367.404 368.174 368.811 367.02 370.282C361.548 377.286 357.406 385.384 354.832 394.117C352.258 402.85 351.301 412.043 352.017 421.175C352.734 430.306 355.109 439.195 359.007 447.336C362.905 455.476 368.249 462.707 374.736 468.617C381.222 474.527 388.721 478.999 396.808 481.78C404.895 484.559 413.41 485.591 421.866 484.818C430.322 484.044 438.554 481.48 446.093 477.271C453.63 473.061 460.327 467.29 465.8 460.286C466.95 458.813 468.034 457.305 469.051 455.761C457.609 468.177 442.26 475.492 426.053 476.253C409.847 477.015 393.968 471.167 381.569 459.871Z" fill="black"/>
</g>
</g>
</svg>
