<svg width="700" height="700" viewBox="0 0 700 700" fill="none" xmlns="http://www.w3.org/2000/svg">
<g id="upload_img ">
<g id="upload_img">
<g id="backpage">
<path id="Vector" d="M358.055 1.52585L335.306 8.06924L55.0341 88.6854L32.2851 95.2288C21.243 98.4196 11.7867 106.366 5.99057 117.324C0.194482 128.282 -1.46794 141.356 1.36801 153.68L100.012 580.338C102.873 592.654 109.997 603.202 119.822 609.667C129.646 616.132 141.368 617.985 152.417 614.822L152.476 614.805L478.128 521.137L478.187 521.12C489.228 517.929 498.685 509.983 504.481 499.025C510.277 488.067 511.94 474.992 509.104 462.669L410.459 36.0106C407.598 23.6943 400.474 13.1468 390.65 6.68189C380.826 0.216977 369.104 -1.6373 358.055 1.52585Z" fill="#F2F2F2"/>
<path id="Vector_2" d="M361.148 14.9027L334.204 22.653L62.3221 100.856L35.3779 108.606C27.5146 110.878 20.7804 116.537 16.6528 124.34C12.5254 132.143 11.3414 141.454 13.361 150.23L112.005 576.889C114.043 585.659 119.116 593.17 126.112 597.774C133.108 602.378 141.456 603.698 149.324 601.446L149.383 601.429L475.035 507.759L475.094 507.742C482.957 505.47 489.692 499.812 493.819 492.008C497.946 484.205 499.13 474.894 497.111 466.118L398.466 39.4602C396.429 30.6896 391.355 23.1785 384.36 18.5746C377.363 13.9709 369.016 12.6504 361.148 14.9027Z" fill="white"/>
<path id="Vector_3" d="M340.803 153.066L176.063 200.451C174.223 200.98 172.27 200.673 170.634 199.596C168.997 198.519 167.811 196.761 167.337 194.709C166.862 192.656 167.138 190.478 168.104 188.652C169.069 186.827 170.645 185.504 172.485 184.975L337.225 137.59C339.064 137.062 341.015 137.372 342.65 138.448C344.286 139.525 345.471 141.283 345.945 143.334C346.42 145.386 346.144 147.562 345.18 149.387C344.216 151.212 342.642 152.535 340.803 153.066Z" fill="#F2F2F2"/>
<path id="Vector_4" d="M375.458 170.951L182.101 226.567C180.261 227.096 178.308 226.789 176.672 225.712C175.035 224.634 173.849 222.876 173.375 220.824C172.9 218.772 173.176 216.594 174.142 214.768C175.107 212.943 176.683 211.62 178.523 211.091L371.881 155.475C373.72 154.945 375.674 155.252 377.31 156.329C378.947 157.406 380.132 159.164 380.607 161.217C381.082 163.27 380.805 165.447 379.84 167.273C378.874 169.099 377.298 170.421 375.458 170.951Z" fill="#F2F2F2"/>
<path id="Vector_5" d="M367.862 270.105L203.122 317.49C202.211 317.752 201.263 317.811 200.331 317.664C199.4 317.518 198.503 317.168 197.693 316.634C196.883 316.101 196.174 315.395 195.609 314.556C195.043 313.719 194.631 312.763 194.396 311.747C194.161 310.731 194.108 309.673 194.24 308.634C194.371 307.595 194.685 306.595 195.163 305.692C195.642 304.787 196.274 303.997 197.026 303.366C197.778 302.735 198.634 302.275 199.545 302.014L364.284 254.628C365.195 254.366 366.144 254.307 367.075 254.454C368.007 254.601 368.904 254.951 369.714 255.484C370.524 256.018 371.232 256.724 371.798 257.562C372.364 258.401 372.776 259.355 373.011 260.371C373.246 261.387 373.299 262.445 373.168 263.484C373.036 264.523 372.722 265.523 372.244 266.428C371.766 267.331 371.133 268.121 370.381 268.752C369.629 269.383 368.774 269.843 367.862 270.105Z" fill="#F2F2F2"/>
<path id="Vector_6" d="M402.518 287.99L209.161 343.606C208.25 343.869 207.302 343.927 206.369 343.781C205.438 343.634 204.541 343.284 203.731 342.751C202.921 342.217 202.212 341.511 201.647 340.673C201.081 339.834 200.669 338.88 200.434 337.864C200.199 336.848 200.146 335.79 200.278 334.751C200.409 333.712 200.723 332.711 201.201 331.807C201.68 330.904 202.313 330.114 203.064 329.483C203.816 328.851 204.672 328.392 205.583 328.129L398.94 272.513C400.78 271.984 402.733 272.292 404.37 273.369C406.006 274.446 407.193 276.204 407.667 278.256C408.141 280.308 407.866 282.487 406.9 284.313C405.935 286.137 404.359 287.461 402.518 287.99Z" fill="#F2F2F2"/>
<path id="Vector_7" d="M147.94 249.037L89.6402 265.807C88.7576 266.059 87.8216 265.911 87.0371 265.395C86.2527 264.878 85.6839 264.037 85.4554 263.052L72.0727 205.17C71.8463 204.186 71.9791 203.142 72.4419 202.267C72.9046 201.392 73.6598 200.757 74.5415 200.502L132.841 183.733C133.723 183.481 134.659 183.629 135.444 184.145C136.228 184.661 136.798 185.504 137.026 186.487L150.409 244.37C150.635 245.354 150.502 246.398 150.04 247.272C149.577 248.148 148.821 248.782 147.94 249.037Z" fill="#E6E6E6"/>
<path id="Vector_8" d="M174.999 366.076L116.7 382.845C115.817 383.098 114.881 382.95 114.096 382.433C113.312 381.918 112.744 381.075 112.515 380.092L99.1327 322.209C98.9056 321.225 99.0389 320.181 99.5019 319.306C99.9641 318.431 100.72 317.797 101.601 317.542L159.901 300.773C160.783 300.52 161.719 300.668 162.504 301.184C163.288 301.701 163.857 302.543 164.085 303.526L177.468 361.409C177.695 362.393 177.562 363.437 177.099 364.312C176.636 365.187 175.881 365.822 174.999 366.076Z" fill="#E6E6E6"/>
<path id="Vector_9" d="M202.06 483.116L143.759 499.885C142.877 500.137 141.941 499.989 141.157 499.473C140.372 498.956 139.803 498.115 139.575 497.131L126.192 439.248C125.966 438.264 126.098 437.22 126.561 436.345C127.025 435.47 127.779 434.836 128.661 434.58L186.961 417.811C187.843 417.559 188.779 417.708 189.563 418.223C190.348 418.74 190.917 419.582 191.146 420.565L204.528 478.448C204.754 479.432 204.622 480.476 204.159 481.351C203.696 482.226 202.941 482.86 202.06 483.116Z" fill="#E6E6E6"/>
<path id="Vector_10" d="M394.922 387.144L230.183 434.53C228.343 435.057 226.391 434.748 224.755 433.671C223.12 432.594 221.935 430.836 221.461 428.785C220.986 426.734 221.262 424.556 222.226 422.731C223.191 420.906 224.765 419.583 226.604 419.053L391.344 371.668C393.184 371.139 395.137 371.447 396.774 372.524C398.41 373.601 399.596 375.359 400.071 377.411C400.545 379.463 400.269 381.642 399.304 383.466C398.338 385.292 396.762 386.614 394.922 387.144Z" fill="#F2F2F2"/>
<path id="Vector_11" d="M429.578 405.029L236.221 460.645C235.309 460.908 234.361 460.969 233.428 460.822C232.496 460.676 231.599 460.327 230.787 459.793C229.976 459.26 229.267 458.554 228.702 457.715C228.136 456.877 227.723 455.921 227.487 454.904C227.252 453.887 227.2 452.829 227.332 451.789C227.463 450.75 227.778 449.749 228.256 448.846C228.736 447.941 229.368 447.151 230.121 446.52C230.874 445.889 231.73 445.43 232.642 445.169L426 389.553C427.839 389.023 429.793 389.331 431.43 390.408C433.066 391.484 434.252 393.242 434.727 395.296C435.202 397.348 434.925 399.525 433.96 401.351C432.994 403.177 431.418 404.499 429.578 405.029Z" fill="#F2F2F2"/>
</g>
<g id="frontpage">
<path id="Vector_12" d="M585.263 109.679H248.835C237.429 109.693 226.493 114.753 218.428 123.749C210.362 132.746 205.825 144.944 205.812 157.667V598.284C205.825 611.006 210.362 623.203 218.428 632.2C226.493 641.196 237.429 646.256 248.835 646.271H585.263C596.67 646.256 607.605 641.196 615.671 632.2C623.737 623.203 628.274 611.006 628.287 598.284V157.667C628.274 144.944 623.737 132.746 615.671 123.749C607.605 114.753 596.67 109.693 585.263 109.679Z" fill="#E6E6E6"/>
<path id="Vector_13" d="M585.263 123.493H248.835C240.712 123.503 232.925 127.107 227.181 133.514C221.437 139.92 218.207 148.606 218.197 157.667V598.284C218.207 607.344 221.437 616.03 227.181 622.437C232.925 628.842 240.712 632.446 248.835 632.456H585.263C593.386 632.446 601.174 628.842 606.918 622.436C612.662 616.03 615.893 607.344 615.902 598.284V157.667C615.893 148.606 612.662 139.92 606.918 133.514C601.174 127.107 593.386 123.503 585.263 123.493Z" fill="white"/>
<path id="Vector_14" d="M534.631 365.611H364.502C363.56 365.612 362.628 365.406 361.758 365.005C360.887 364.604 360.097 364.016 359.431 363.273C358.764 362.531 358.235 361.65 357.875 360.679C357.515 359.709 357.329 358.67 357.329 357.619C357.329 356.569 357.515 355.529 357.875 354.559C358.235 353.59 358.764 352.708 359.431 351.965C360.097 351.224 360.887 350.635 361.758 350.234C362.628 349.833 363.56 349.627 364.502 349.628H534.631C536.53 349.631 538.35 350.474 539.692 351.972C541.034 353.47 541.788 355.501 541.788 357.619C541.788 359.737 541.034 361.768 539.692 363.267C538.35 364.766 536.53 365.608 534.631 365.611Z" fill="#E6E6E6"/>
<path id="Vector_15" d="M564.185 392.581H364.502C363.56 392.582 362.628 392.377 361.758 391.976C360.887 391.574 360.097 390.986 359.431 390.244C358.764 389.502 358.235 388.621 357.875 387.65C357.515 386.68 357.329 385.64 357.329 384.59C357.329 383.54 357.515 382.5 357.875 381.53C358.235 380.56 358.764 379.678 359.431 378.936C360.097 378.194 360.887 377.606 361.758 377.204C362.628 376.803 363.56 376.598 364.502 376.599H564.185C566.085 376.599 567.907 377.441 569.251 378.939C570.595 380.438 571.349 382.471 571.349 384.59C571.349 386.71 570.595 388.742 569.251 390.241C567.907 391.74 566.085 392.581 564.185 392.581Z" fill="#E6E6E6"/>
<path id="Vector_16" d="M534.631 486.479H364.502C363.56 486.48 362.628 486.275 361.758 485.874C360.887 485.472 360.097 484.884 359.431 484.142C358.764 483.4 358.235 482.518 357.875 481.548C357.515 480.578 357.329 479.538 357.329 478.488C357.329 477.438 357.515 476.398 357.875 475.428C358.235 474.457 358.764 473.576 359.431 472.834C360.097 472.092 360.887 471.503 361.758 471.102C362.628 470.701 363.56 470.496 364.502 470.497H534.631C536.531 470.497 538.354 471.338 539.697 472.837C541.041 474.336 541.796 476.368 541.796 478.488C541.796 480.607 541.041 482.64 539.697 484.139C538.354 485.637 536.531 486.479 534.631 486.479Z" fill="#E6E6E6"/>
<path id="Vector_17" d="M564.185 513.45H364.502C363.56 513.451 362.628 513.245 361.758 512.844C360.887 512.443 360.097 511.855 359.431 511.113C358.764 510.37 358.235 509.488 357.875 508.518C357.515 507.549 357.329 506.509 357.329 505.459C357.329 504.408 357.515 503.368 357.875 502.399C358.235 501.428 358.764 500.547 359.431 499.804C360.097 499.062 360.887 498.474 361.758 498.073C362.628 497.672 363.56 497.466 364.502 497.467H564.185C565.126 497.466 566.059 497.672 566.929 498.073C567.799 498.474 568.59 499.062 569.256 499.804C569.922 500.547 570.451 501.428 570.811 502.399C571.172 503.368 571.357 504.408 571.357 505.459C571.357 506.509 571.172 507.549 570.811 508.518C570.451 509.488 569.922 510.37 569.256 511.113C568.59 511.855 567.799 512.443 566.929 512.844C566.059 513.245 565.126 513.451 564.185 513.45Z" fill="#E6E6E6"/>
<path id="Vector_18" d="M326.391 404.825H266.185C265.274 404.824 264.401 404.42 263.757 403.702C263.112 402.983 262.75 402.009 262.749 400.993V341.217C262.75 340.201 263.112 339.227 263.757 338.509C264.401 337.79 265.274 337.386 266.185 337.385H326.391C327.302 337.386 328.176 337.79 328.82 338.509C329.464 339.227 329.826 340.201 329.827 341.217V400.993C329.826 402.009 329.464 402.983 328.82 403.702C328.176 404.42 327.302 404.824 326.391 404.825Z" fill="#E6E6E6"/>
<path id="Vector_19" d="M326.391 525.693H266.185C265.274 525.692 264.401 525.288 263.757 524.569C263.112 523.851 262.75 522.877 262.749 521.861V462.085C262.75 461.069 263.112 460.094 263.757 459.376C264.401 458.659 265.274 458.254 266.185 458.253H326.391C327.302 458.254 328.176 458.659 328.82 459.376C329.464 460.094 329.826 461.069 329.827 462.085V521.861C329.826 522.877 329.464 523.851 328.82 524.569C328.176 525.288 327.302 525.692 326.391 525.693Z" fill="#E6E6E6"/>
</g>
<g id="add">
<path id="Vector_20" d="M620.608 699.88C663.983 699.88 699.145 660.66 699.145 612.281C699.145 563.9 663.983 524.68 620.608 524.68C577.233 524.68 542.07 563.9 542.07 612.281C542.07 660.66 577.233 699.88 620.608 699.88Z" fill="#8685EF"/>
<path id="Vector_21" d="M658.169 600.854H630.852V570.384C630.852 567.354 629.773 564.448 627.852 562.305C625.931 560.162 623.324 558.958 620.608 558.958C617.891 558.958 615.285 560.162 613.364 562.305C611.443 564.448 610.363 567.354 610.363 570.384V600.854H583.046C580.33 600.854 577.724 602.058 575.802 604.201C573.881 606.344 572.802 609.25 572.802 612.281C572.802 615.311 573.881 618.217 575.802 620.36C577.724 622.502 580.33 623.706 583.046 623.706H610.363V654.176C610.363 657.206 611.443 660.113 613.364 662.256C615.285 664.399 617.891 665.602 620.608 665.602C623.324 665.602 625.931 664.399 627.852 662.256C629.773 660.113 630.852 657.206 630.852 654.176V623.706H658.169C660.886 623.706 663.492 622.502 665.413 620.36C667.334 618.217 668.413 615.311 668.413 612.281C668.413 609.25 667.334 606.344 665.413 604.201C663.492 602.058 660.886 600.854 658.169 600.854Z" fill="white"/>
<path id="Vector_22" d="M534.82 231.061H409.39C407.49 231.061 405.667 230.219 404.325 228.721C402.981 227.222 402.226 225.189 402.226 223.07C402.226 220.95 402.981 218.918 404.325 217.419C405.667 215.92 407.49 215.078 409.39 215.078H534.82C536.72 215.078 538.542 215.92 539.886 217.419C541.23 218.918 541.984 220.95 541.984 223.07C541.984 225.189 541.23 227.222 539.886 228.721C538.542 230.219 536.72 231.061 534.82 231.061Z" fill="#CCCCCC"/>
<path id="Vector_23" d="M564.373 258.032H409.39C408.45 258.032 407.518 257.824 406.649 257.423C405.779 257.022 404.99 256.433 404.325 255.69C403.659 254.949 403.131 254.068 402.771 253.098C402.411 252.129 402.226 251.09 402.226 250.041C402.226 248.991 402.411 247.952 402.771 246.982C403.131 246.012 403.659 245.132 404.325 244.39C404.99 243.647 405.779 243.059 406.649 242.657C407.518 242.256 408.45 242.048 409.39 242.048H564.373C566.274 242.048 568.096 242.891 569.44 244.39C570.783 245.888 571.538 247.921 571.538 250.041C571.538 252.16 570.783 254.192 569.44 255.69C568.096 257.189 566.274 258.032 564.373 258.032Z" fill="#CCCCCC"/>
<path id="Vector_24" d="M381.631 290.716H265.996C265.085 290.715 264.212 290.312 263.567 289.593C262.924 288.875 262.562 287.9 262.561 286.884V186.225C262.562 185.209 262.924 184.235 263.567 183.517C264.212 182.799 265.085 182.394 265.996 182.393H381.631C382.542 182.394 383.415 182.799 384.059 183.517C384.703 184.235 385.065 185.209 385.066 186.225V286.884C385.065 287.9 384.703 288.875 384.059 289.593C383.415 290.312 382.542 290.715 381.631 290.716Z" fill="#8685EF"/>
</g>
</g>
</g>
</svg>
