<svg width="1500" height="675" viewBox="0 0 1500 675" fill="none" xmlns="http://www.w3.org/2000/svg">
<g id="Frame 1">
<g id="upload_img">
<g id="upload_img_2">
<g id="backpage">
<path id="Vector" d="M890.816 1.45473L870.114 7.76442L615.067 85.5014L594.365 91.8111C584.317 94.888 575.712 102.551 570.437 113.117C565.163 123.684 563.65 136.291 566.231 148.175L655.997 559.595C658.6 571.471 665.083 581.642 674.024 587.876C682.964 594.111 693.631 595.897 703.685 592.847L703.739 592.831L1000.08 502.508L1000.14 502.492C1010.18 499.415 1018.79 491.753 1024.06 481.186C1029.34 470.619 1030.85 458.011 1028.27 446.128L938.504 34.7079C935.9 22.8314 929.417 12.6606 920.477 6.42662C911.538 0.1926 900.871 -1.59545 890.816 1.45473Z" fill="#F2F2F2"/>
<path id="Vector_2" d="M893.631 14.3538L869.112 21.8273L621.699 97.2374L597.18 104.711C590.024 106.901 583.896 112.358 580.14 119.883C576.384 127.407 575.307 136.385 577.144 144.848L666.91 556.269C668.765 564.726 673.382 571.969 679.748 576.408C686.114 580.848 693.711 582.121 700.871 579.949L700.924 579.933L997.268 489.608L997.321 489.592C1004.48 487.401 1010.61 481.945 1014.36 474.42C1018.12 466.895 1019.19 457.917 1017.36 449.454L927.59 38.0343C925.736 29.5769 921.119 22.3341 914.754 17.8946C908.386 13.4553 900.791 12.182 893.631 14.3538Z" fill="white"/>
<path id="Vector_3" d="M875.117 147.583L725.203 193.275C723.529 193.786 721.752 193.489 720.263 192.451C718.773 191.412 717.694 189.717 717.263 187.739C716.83 185.759 717.082 183.659 717.961 181.898C718.839 180.138 720.273 178.862 721.947 178.352L871.861 132.659C873.534 132.15 875.31 132.449 876.797 133.487C878.286 134.525 879.365 136.221 879.796 138.198C880.228 140.177 879.977 142.275 879.1 144.035C878.223 145.795 876.79 147.071 875.117 147.583Z" fill="#F2F2F2"/>
<path id="Vector_4" d="M906.653 164.829L730.698 218.459C729.023 218.969 727.246 218.673 725.757 217.634C724.268 216.595 723.189 214.9 722.757 212.921C722.325 210.942 722.576 208.842 723.455 207.081C724.333 205.321 725.767 204.046 727.442 203.535L903.398 149.906C905.071 149.395 906.849 149.691 908.338 150.729C909.828 151.768 910.906 153.463 911.338 155.443C911.771 157.422 911.518 159.522 910.64 161.282C909.761 163.043 908.327 164.318 906.653 164.829Z" fill="#F2F2F2"/>
<path id="Vector_5" d="M899.74 260.442L749.827 306.134C748.998 306.387 748.135 306.444 747.287 306.302C746.44 306.161 745.624 305.824 744.887 305.309C744.149 304.795 743.504 304.114 742.99 303.305C742.475 302.498 742.1 301.576 741.886 300.597C741.672 299.617 741.624 298.597 741.744 297.595C741.864 296.593 742.149 295.629 742.584 294.758C743.02 293.885 743.595 293.123 744.28 292.515C744.964 291.906 745.743 291.463 746.572 291.211L896.484 245.518C897.313 245.265 898.177 245.208 899.024 245.35C899.872 245.491 900.689 245.829 901.426 246.343C902.163 246.858 902.807 247.539 903.322 248.347C903.837 249.156 904.212 250.076 904.426 251.055C904.64 252.035 904.688 253.055 904.569 254.057C904.449 255.059 904.163 256.023 903.728 256.896C903.293 257.767 902.717 258.529 902.033 259.137C901.348 259.746 900.57 260.189 899.74 260.442Z" fill="#F2F2F2"/>
<path id="Vector_6" d="M931.277 277.688L755.322 331.318C754.493 331.571 753.631 331.627 752.782 331.486C751.935 331.345 751.118 331.007 750.381 330.493C749.644 329.978 748.999 329.298 748.485 328.489C747.97 327.68 747.595 326.761 747.381 325.781C747.167 324.801 747.119 323.781 747.239 322.779C747.358 321.777 747.644 320.812 748.079 319.94C748.515 319.069 749.091 318.308 749.774 317.699C750.459 317.09 751.237 316.647 752.067 316.393L928.021 262.764C929.696 262.254 931.473 262.551 932.963 263.589C934.451 264.628 935.532 266.323 935.963 268.302C936.394 270.28 936.144 272.382 935.265 274.142C934.387 275.901 932.953 277.178 931.277 277.688Z" fill="#F2F2F2"/>
<path id="Vector_7" d="M699.611 240.126L646.559 256.297C645.755 256.54 644.904 256.398 644.19 255.9C643.476 255.401 642.958 254.59 642.75 253.641L630.572 197.826C630.366 196.877 630.487 195.87 630.908 195.027C631.329 194.183 632.016 193.57 632.819 193.325L685.871 177.154C686.674 176.911 687.526 177.054 688.24 177.552C688.953 178.049 689.472 178.862 689.68 179.81L701.858 235.626C702.064 236.575 701.943 237.581 701.522 238.424C701.101 239.269 700.413 239.88 699.611 240.126Z" fill="#E6E6E6"/>
<path id="Vector_8" d="M724.235 352.985L671.183 369.155C670.379 369.399 669.528 369.257 668.813 368.758C668.1 368.261 667.583 367.449 667.375 366.501L655.197 310.685C654.99 309.736 655.111 308.729 655.533 307.886C655.953 307.042 656.641 306.43 657.443 306.185L710.496 290.015C711.298 289.771 712.15 289.913 712.865 290.411C713.578 290.909 714.096 291.721 714.303 292.669L726.482 348.485C726.688 349.434 726.567 350.441 726.146 351.284C725.725 352.128 725.038 352.74 724.235 352.985Z" fill="#E6E6E6"/>
<path id="Vector_9" d="M748.861 465.845L695.807 482.015C695.004 482.258 694.152 482.116 693.439 481.618C692.724 481.12 692.207 480.309 691.999 479.36L679.821 423.544C679.615 422.595 679.735 421.588 680.156 420.745C680.579 419.901 681.265 419.29 682.067 419.043L735.12 402.873C735.923 402.63 736.775 402.773 737.488 403.27C738.203 403.768 738.72 404.58 738.929 405.528L751.106 461.344C751.312 462.293 751.192 463.3 750.771 464.143C750.349 464.987 749.662 465.598 748.861 465.845Z" fill="#E6E6E6"/>
<path id="Vector_10" d="M924.365 373.301L774.453 418.994C772.778 419.503 771.002 419.205 769.513 418.166C768.025 417.128 766.947 415.432 766.515 413.455C766.083 411.477 766.334 409.377 767.212 407.617C768.09 405.857 769.522 404.581 771.196 404.07L921.109 358.378C922.783 357.867 924.561 358.164 926.05 359.203C927.539 360.242 928.618 361.937 929.051 363.915C929.482 365.894 929.231 367.995 928.353 369.754C927.474 371.515 926.039 372.79 924.365 373.301Z" fill="#F2F2F2"/>
<path id="Vector_11" d="M955.902 390.547L779.947 444.177C779.117 444.43 778.254 444.489 777.405 444.347C776.557 444.207 775.741 443.87 775.002 443.355C774.264 442.841 773.619 442.16 773.105 441.351C772.59 440.543 772.214 439.621 771.999 438.641C771.785 437.66 771.738 436.64 771.858 435.637C771.977 434.635 772.264 433.67 772.699 432.799C773.136 431.926 773.711 431.165 774.396 430.556C775.081 429.948 775.86 429.505 776.69 429.253L952.646 375.624C954.319 375.113 956.098 375.41 957.587 376.448C959.076 377.486 960.155 379.181 960.587 381.162C961.02 383.14 960.768 385.24 959.89 387C959.01 388.761 957.576 390.036 955.902 390.547Z" fill="#F2F2F2"/>
</g>
<g id="frontpage">
<path id="Vector_12" d="M1097.58 105.745H791.426C781.046 105.759 771.095 110.638 763.755 119.313C756.415 127.988 752.287 139.751 752.275 152.019V576.9C752.287 589.168 756.415 600.929 763.755 609.605C771.095 618.28 781.046 623.159 791.426 623.173H1097.58C1107.96 623.159 1117.91 618.28 1125.25 609.605C1132.59 600.929 1136.72 589.168 1136.73 576.9V152.019C1136.72 139.751 1132.59 127.988 1125.25 119.313C1117.91 110.638 1107.96 105.759 1097.58 105.745Z" fill="#E6E6E6"/>
<path id="Vector_13" d="M1097.58 119.066H791.426C784.034 119.076 776.948 122.551 771.721 128.729C766.494 134.906 763.554 143.282 763.545 152.019V576.9C763.554 585.637 766.494 594.012 771.721 600.191C776.948 606.367 784.034 609.842 791.426 609.852H1097.58C1104.97 609.842 1112.05 606.367 1117.28 600.19C1122.51 594.012 1125.45 585.637 1125.46 576.9V152.019C1125.45 143.282 1122.51 134.906 1117.28 128.729C1112.05 122.551 1104.97 119.076 1097.58 119.066Z" fill="white"/>
<path id="Vector_14" d="M1051.5 352.537H896.683C895.826 352.538 894.977 352.339 894.186 351.953C893.393 351.566 892.674 350.999 892.068 350.282C891.461 349.567 890.98 348.717 890.652 347.781C890.325 346.846 890.155 345.844 890.155 344.83C890.155 343.818 890.325 342.815 890.652 341.88C890.98 340.945 891.461 340.095 892.068 339.378C892.674 338.664 893.393 338.096 894.186 337.709C894.977 337.322 895.826 337.124 896.683 337.125H1051.5C1053.23 337.128 1054.88 337.94 1056.11 339.385C1057.33 340.829 1058.01 342.788 1058.01 344.83C1058.01 346.873 1057.33 348.831 1056.11 350.277C1054.88 351.722 1053.23 352.534 1051.5 352.537Z" fill="#E6E6E6"/>
<path id="Vector_15" d="M1078.39 378.544H896.683C895.826 378.545 894.977 378.347 894.186 377.96C893.393 377.573 892.674 377.006 892.068 376.29C891.461 375.575 890.98 374.725 890.652 373.789C890.325 372.853 890.155 371.851 890.155 370.838C890.155 369.826 890.325 368.823 890.652 367.887C890.98 366.952 891.461 366.101 892.068 365.386C892.674 364.67 893.393 364.103 894.186 363.716C894.977 363.329 895.826 363.131 896.683 363.132H1078.39C1080.12 363.132 1081.78 363.944 1083 365.389C1084.23 366.834 1084.91 368.795 1084.91 370.838C1084.91 372.882 1084.23 374.842 1083 376.287C1081.78 377.733 1080.12 378.544 1078.39 378.544Z" fill="#E6E6E6"/>
<path id="Vector_16" d="M1051.5 469.088H896.683C895.826 469.089 894.977 468.891 894.186 468.505C893.393 468.117 892.674 467.55 892.068 466.835C891.461 466.119 890.98 465.269 890.652 464.333C890.325 463.398 890.155 462.395 890.155 461.382C890.155 460.37 890.325 459.367 890.652 458.432C890.98 457.495 891.461 456.646 892.068 455.93C892.674 455.215 893.393 454.647 894.186 454.26C894.977 453.874 895.826 453.676 896.683 453.677H1051.5C1053.23 453.677 1054.89 454.488 1056.11 455.933C1057.33 457.379 1058.02 459.338 1058.02 461.382C1058.02 463.426 1057.33 465.386 1056.11 466.832C1054.89 468.276 1053.23 469.088 1051.5 469.088Z" fill="#E6E6E6"/>
<path id="Vector_17" d="M1078.39 495.096H896.683C895.826 495.097 894.977 494.898 894.186 494.511C893.393 494.125 892.674 493.558 892.068 492.842C891.461 492.126 890.98 491.275 890.652 490.34C890.325 489.406 890.155 488.403 890.155 487.39C890.155 486.377 890.325 485.374 890.652 484.439C890.98 483.503 891.461 482.654 892.068 481.937C892.674 481.222 893.393 480.655 894.186 480.268C894.977 479.881 895.826 479.683 896.683 479.684H1078.39C1079.25 479.683 1080.1 479.881 1080.89 480.268C1081.68 480.655 1082.4 481.222 1083.01 481.937C1083.62 482.654 1084.1 483.503 1084.42 484.439C1084.75 485.374 1084.92 486.377 1084.92 487.39C1084.92 488.403 1084.75 489.406 1084.42 490.34C1084.1 491.275 1083.62 492.126 1083.01 492.842C1082.4 493.558 1081.68 494.125 1080.89 494.511C1080.1 494.898 1079.25 495.097 1078.39 495.096Z" fill="#E6E6E6"/>
<path id="Vector_18" d="M862.002 390.35H807.214C806.385 390.349 805.591 389.96 805.005 389.267C804.418 388.574 804.088 387.635 804.088 386.655V329.014C804.088 328.034 804.418 327.095 805.005 326.403C805.591 325.709 806.385 325.32 807.214 325.319H862.002C862.831 325.32 863.626 325.709 864.212 326.403C864.798 327.095 865.128 328.034 865.129 329.014V386.655C865.128 387.635 864.798 388.574 864.212 389.267C863.626 389.96 862.831 390.349 862.002 390.35Z" fill="#E6E6E6"/>
<path id="Vector_19" d="M862.002 506.902H807.214C806.385 506.901 805.591 506.511 805.005 505.818C804.418 505.125 804.088 504.186 804.088 503.206V445.565C804.088 444.586 804.418 443.645 805.005 442.953C805.591 442.262 806.385 441.871 807.214 441.87H862.002C862.831 441.871 863.626 442.262 864.212 442.953C864.798 443.645 865.128 444.586 865.129 445.565V503.206C865.128 504.186 864.798 505.125 864.212 505.818C863.626 506.511 862.831 506.901 862.002 506.902Z" fill="#E6E6E6"/>
</g>
<g id="add">
<path id="Vector_20" d="M1129.74 674.868C1169.21 674.868 1201.21 637.048 1201.21 590.397C1201.21 543.744 1169.21 505.925 1129.74 505.925C1090.27 505.925 1058.27 543.744 1058.27 590.397C1058.27 637.048 1090.27 674.868 1129.74 674.868Z" fill="#8685EF"/>
<path id="Vector_21" d="M1163.92 579.378H1139.06V549.996C1139.06 547.075 1138.08 544.272 1136.33 542.206C1134.58 540.139 1132.21 538.979 1129.74 538.979C1127.27 538.979 1124.9 540.139 1123.15 542.206C1121.4 544.272 1120.42 547.075 1120.42 549.996V579.378H1095.56C1093.09 579.378 1090.71 580.539 1088.97 582.606C1087.22 584.672 1086.24 587.474 1086.24 590.397C1086.24 593.319 1087.22 596.121 1088.97 598.188C1090.71 600.253 1093.09 601.414 1095.56 601.414H1120.42V630.796C1120.42 633.718 1121.4 636.521 1123.15 638.587C1124.9 640.654 1127.27 641.814 1129.74 641.814C1132.21 641.814 1134.58 640.654 1136.33 638.587C1138.08 636.521 1139.06 633.718 1139.06 630.796V601.414H1163.92C1166.39 601.414 1168.76 600.253 1170.51 598.188C1172.26 596.121 1173.24 593.319 1173.24 590.397C1173.24 587.474 1172.26 584.672 1170.51 582.606C1168.76 580.539 1166.39 579.378 1163.92 579.378Z" fill="white"/>
<path id="Vector_22" d="M1051.67 222.792H937.531C935.802 222.792 934.143 221.98 932.922 220.536C931.699 219.09 931.012 217.13 931.012 215.087C931.012 213.042 931.699 211.083 932.922 209.637C934.143 208.192 935.802 207.38 937.531 207.38H1051.67C1053.4 207.38 1055.06 208.192 1056.28 209.637C1057.51 211.083 1058.19 213.042 1058.19 215.087C1058.19 217.13 1057.51 219.09 1056.28 220.536C1055.06 221.98 1053.4 222.792 1051.67 222.792Z" fill="#CCCCCC"/>
<path id="Vector_23" d="M1078.57 248.8H937.531C936.675 248.8 935.827 248.599 935.037 248.213C934.245 247.826 933.527 247.258 932.922 246.542C932.316 245.827 931.835 244.978 931.508 244.042C931.18 243.108 931.012 242.106 931.012 241.094C931.012 240.082 931.18 239.08 931.508 238.145C931.835 237.209 932.316 236.361 932.922 235.645C933.527 234.929 934.245 234.362 935.037 233.974C935.827 233.587 936.675 233.387 937.531 233.387H1078.57C1080.3 233.387 1081.95 234.2 1083.18 235.645C1084.4 237.09 1085.09 239.05 1085.09 241.094C1085.09 243.138 1084.4 245.097 1083.18 246.542C1081.95 247.987 1080.3 248.8 1078.57 248.8Z" fill="#CCCCCC"/>
<path id="Vector_24" d="M912.27 280.317H807.042C806.213 280.316 805.419 279.927 804.832 279.234C804.247 278.541 803.917 277.601 803.916 276.622V179.557C803.917 178.578 804.247 177.639 804.832 176.946C805.419 176.254 806.213 175.863 807.042 175.862H912.27C913.099 175.863 913.894 176.254 914.48 176.946C915.066 177.639 915.395 178.578 915.396 179.557V276.622C915.395 277.601 915.066 278.541 914.48 279.234C913.894 279.927 913.099 280.316 912.27 280.317Z" fill="#8685EF"/>
</g>
</g>
</g>
</g>
</svg>
